<svg width="44" height="40" viewBox="0 0 44 40" fill="none" xmlns="http://www.w3.org/2000/svg">
<path d="M36.2624 41.3738H28.0488V33.4507H36.2624V41.3738Z" fill="#3E6982"/>
<path d="M32.208 35.284V41.3738" stroke="#628494" stroke-width="1.56148" stroke-miterlimit="10" stroke-linecap="round" stroke-linejoin="round"/>
<path d="M15.7334 41.3738H7.51758V33.4507H15.7334V41.3738Z" fill="#3E6982"/>
<path d="M37.2036 29.7235H6.46875V0.474976H37.2036V29.7235Z" fill="#AFBFD0"/>
<path d="M37.2036 32.1063H6.46875V29.7167H37.2036V32.1063Z" fill="#3E6982"/>
<path d="M28.0532 31.6783V31.3427C28.0532 31.1108 27.8663 30.9238 27.6343 30.9238H16.0403C15.8084 30.9238 15.6192 31.1108 15.6192 31.3427V31.6783C15.6192 31.9103 15.4322 32.0972 15.2003 32.0972H6.88765C6.65568 32.0972 6.46875 32.2864 6.46875 32.5161V35.1353C6.46875 35.3673 6.65568 35.5565 6.88765 35.5565H17.1484C17.3803 35.5565 17.5673 35.3673 17.5673 35.1353C17.5673 34.9056 17.7564 34.7164 17.9862 34.7164H25.7786C26.0105 34.7164 26.1974 34.9056 26.1974 35.1353C26.1974 35.3673 26.3866 35.5565 26.6186 35.5565H36.8771C37.109 35.5565 37.296 35.3673 37.296 35.1353V32.5161C37.296 32.2864 37.109 32.0972 36.8771 32.0972H28.4744C28.2424 32.0972 28.0532 31.9103 28.0532 31.6783Z" fill="#3E6982"/>
<path d="M7.38965 1.39612H36.2845V28.8023H7.38965V1.39612Z" fill="#87A6BF"/>
<path d="M11.6846 7.58948H31.9898V28.8046H11.6846V7.58948Z" fill="#6A8FA8"/>
<path d="M41.5945 29.7212H37.2051V0.474991L41.5945 -4V29.7212Z" fill="#87A6BF"/>
<path d="M2.07715 29.7212H6.46881V0.474991L2.07715 -4V29.7212Z" fill="#87A6BF"/>
<path d="M1.13086 29.7235H2.07676V-4H1.13086V29.7235Z" fill="#AFBFD0"/>
<path d="M41.5879 29.7212H42.5338V-4H41.5879V29.7212Z" fill="#AFBFD0"/>
<path d="M7.38965 1.39612L11.6845 7.59399H31.9897L36.2845 1.39612H7.38965Z" fill="#7294AB"/>
<path d="M13.099 32.6197H5.91696C5.82462 32.6197 5.74805 32.5431 5.74805 32.4508V30.8833C5.74805 30.7887 5.82462 30.7122 5.91696 30.7122H13.099C13.1914 30.7122 13.2679 30.7887 13.2679 30.8833V32.4508C13.2679 32.5431 13.1914 32.6197 13.099 32.6197Z" fill="#6A8FA8"/>
<path d="M7.36719 30.7211V32.6107" stroke="#3E6982" stroke-width="1.56148" stroke-miterlimit="10" stroke-linecap="round" stroke-linejoin="round"/>
<path d="M9.6416 30.7211V32.6107" stroke="#3E6982" stroke-width="1.56148" stroke-miterlimit="10" stroke-linecap="round" stroke-linejoin="round"/>
<path d="M11.4775 30.7211V32.6107" stroke="#3E6982" stroke-width="1.56148" stroke-miterlimit="10" stroke-linecap="round" stroke-linejoin="round"/>
<path d="M30.7265 30.7122H37.9086C38.0009 30.7122 38.0775 30.7887 38.0775 30.8833V32.4508C38.0775 32.5431 38.0009 32.6197 37.9086 32.6197H30.7265C30.6342 32.6197 30.5576 32.5431 30.5576 32.4508V30.8833C30.5576 30.7887 30.6342 30.7122 30.7265 30.7122Z" fill="#6A8FA8"/>
<path d="M36.458 32.6107V30.7211" stroke="#3E6982" stroke-width="1.56148" stroke-miterlimit="10" stroke-linecap="round" stroke-linejoin="round"/>
<path d="M34.1836 32.6107V30.7211" stroke="#3E6982" stroke-width="1.56148" stroke-miterlimit="10" stroke-linecap="round" stroke-linejoin="round"/>
<path d="M32.3477 32.6107V30.7211" stroke="#3E6982" stroke-width="1.56148" stroke-miterlimit="10" stroke-linecap="round" stroke-linejoin="round"/>
<path d="M11.6777 35.284V41.3738" stroke="#628494" stroke-width="1.56148" stroke-miterlimit="10" stroke-linecap="round" stroke-linejoin="round"/>
<path d="M9.3291 26.4286L9.63764 28.8136C9.63764 28.8136 9.82232 28.8113 10.0025 28.8113L10.2435 26.4286H9.3291Z" fill="#E8BF8B"/>
<path d="M19.7988 26.4286L20.1074 28.8136C20.1074 28.8136 20.292 28.8113 20.4722 28.8113L20.7132 26.4286H19.7988Z" fill="#E8BF8B"/>
<path d="M21.2108 27.0929H8.83984V6.19989H21.2108V27.0929Z" fill="#F7EEDF"/>
<path d="M20.4968 26.28H9.55371V6.94989H20.4968V26.28Z" stroke="#E8BF8B" stroke-width="1.56148" stroke-miterlimit="10" stroke-linecap="round" stroke-linejoin="round"/>
<path d="M15.0244 6.99042V26.2394" stroke="#E8BF8B" stroke-width="1.56148" stroke-miterlimit="10" stroke-linecap="round" stroke-linejoin="round"/>
<path d="M15.7153 16.8615H15.6658C15.5937 16.8615 15.5352 16.8007 15.5352 16.7309V14.785C15.5352 14.713 15.5937 14.6544 15.6658 14.6544H15.7153C15.7874 14.6544 15.846 14.713 15.846 14.785V16.7309C15.846 16.8007 15.7874 16.8615 15.7153 16.8615Z" fill="#E8BF8B"/>
<path d="M14.3801 16.8615H14.3328C14.2607 16.8615 14.2021 16.8007 14.2021 16.7309V14.785C14.2021 14.713 14.2607 14.6544 14.3328 14.6544H14.3801C14.4521 14.6544 14.5129 14.713 14.5129 14.785V16.7309C14.5129 16.8007 14.4521 16.8615 14.3801 16.8615Z" fill="#E8BF8B"/>
<path d="M31.7823 19.3839L31.2801 18.2488H30.5459L31.467 19.3839H31.7823Z" fill="#E8BF8B"/>
<path d="M21.6973 19.3839L22.1995 18.2488H22.9359L22.0126 19.3839H21.6973Z" fill="#E8BF8B"/>
<path d="M20.959 11.4902H32.8367V18.3277H20.959V11.4902Z" fill="#EDDDCB"/>
<path d="M21.9746 11.8438H31.7038V17.9358H21.9746V11.8438Z" fill="#E8BF8B"/>
<path d="M27.2106 17.607C27.2106 17.607 26.6093 14.8368 27.4628 13.1613C27.4628 13.1613 27.9628 15.303 27.5056 17.5236C27.366 18.197 27.2106 17.607 27.2106 17.607Z" fill="#C5E2CC"/>
<path d="M27.7668 17.3863C27.7668 17.3863 28.6407 16.7219 28.5123 15.4539C28.5123 15.4539 27.6249 15.8188 27.3164 17.3863C27.3164 17.3863 27.5844 17.6948 27.7668 17.3863Z" fill="#C5E2CC"/>
<path d="M27.2305 17.3863C27.2305 17.3863 26.0549 16.6408 25.6562 14.7288C25.6562 14.7288 27.2418 15.9269 27.3679 17.3863H27.2305Z" fill="#C5E2CC"/>
<path d="M28.0952 19.3839H26.5547L26.1719 17.2241H28.4781L28.0952 19.3839Z" fill="#EE9E8F"/>
<path d="M21.9004 26.1088L22.2022 28.7933C22.2022 28.7933 22.3846 28.7888 22.5625 28.7888L22.799 26.1088H21.9004Z" fill="#E8BF8B"/>
<path d="M31.7715 26.1088L32.0733 28.7933C32.0733 28.7933 32.2557 28.7888 32.4336 28.7888L32.6701 26.1088H31.7715Z" fill="#E8BF8B"/>
<path d="M20.418 19.3839H34.1515V26.3047H20.418V19.3839Z" fill="#E8BF8B"/>
<path d="M20.9746 19.8591H33.5933V25.8295H20.9746V19.8591Z" fill="#FCDEC9"/>
<path d="M27.9988 24.0774H27.8817C27.8299 24.0774 27.7871 24.0346 27.7871 23.985V21.6879C27.7871 21.6361 27.8299 21.5955 27.8817 21.5955H27.9988C28.0506 21.5955 28.0911 21.6361 28.0911 21.6879V23.985C28.0911 24.0346 28.0506 24.0774 27.9988 24.0774Z" fill="#B28555"/>
<path d="M26.6883 24.0774H26.5712C26.5194 24.0774 26.4766 24.0346 26.4766 23.985V21.6879C26.4766 21.6361 26.5194 21.5955 26.5712 21.5955H26.6883C26.7401 21.5955 26.7806 21.6361 26.7806 21.6879V23.985C26.7806 24.0346 26.7401 24.0774 26.6883 24.0774Z" fill="#B28555"/>
<path d="M27.2852 20.2983V25.3746" stroke="#E8BF8B" stroke-width="1.56148" stroke-miterlimit="10" stroke-linecap="round" stroke-linejoin="round"/>
<path d="M16.4972 26.6921C16.4972 27.8519 15.558 28.7888 14.4004 28.7888C13.2429 28.7888 12.3037 27.8519 12.3037 26.6921C12.3037 25.5345 13.2429 24.5976 14.4004 24.5976C15.558 24.5976 16.4972 25.5345 16.4972 26.6921Z" fill="#E99387"/>
<path d="M12.7334 25.7484C12.7334 25.7484 13.4293 25.4782 13.8842 25.8182C14.3392 26.1561 14.722 27.7483 13.9293 28.5501" stroke="#B28555" stroke-width="1.56148" stroke-miterlimit="10" stroke-linecap="round" stroke-linejoin="round"/>
<path d="M13.1865 25.2147C13.1865 25.2147 14.995 25.0435 15.5603 28.2145" stroke="#B28555" stroke-width="1.56148" stroke-miterlimit="10" stroke-linecap="round" stroke-linejoin="round"/>
<path d="M13.7725 24.8859C13.7725 24.8859 14.1756 25.271 14.858 25.5142C15.5426 25.7597 15.9998 25.6471 15.9998 25.6471" stroke="#B28555" stroke-width="1.56148" stroke-miterlimit="10" stroke-linecap="round" stroke-linejoin="round"/>
<path d="M12.9951 27.9961C12.9951 27.9961 13.1122 24.6314 15.1527 24.9354" stroke="#B28555" stroke-width="1.56148" stroke-miterlimit="10" stroke-linecap="round" stroke-linejoin="round"/>
<path d="M40.4775 20.0911L40.5834 19.3141C40.5901 19.3186 40.5969 19.3231 40.6037 19.3253C40.5676 19.5866 40.5248 19.8478 40.4775 20.0911Z" fill="#623E3B"/>
</svg>
