<svg width="158" height="158" viewBox="0 0 158 158" fill="none" xmlns="http://www.w3.org/2000/svg">
<g filter="url(#filter0_d_1448_33517)">
<rect x="24" y="24" width="110" height="110" rx="55" fill="white"/>
</g>
<path d="M62.9988 75.1475L61.0652 83H58.5569L57.805 79.5786C57.7906 79.5142 57.7674 79.4049 57.7351 79.251C57.7065 79.097 57.6725 78.9215 57.6331 78.7246C57.5973 78.5277 57.5633 78.3343 57.531 78.1445C57.5024 77.9512 57.4809 77.7882 57.4666 77.6558C57.4523 77.7882 57.429 77.9512 57.3968 78.1445C57.3645 78.3343 57.3287 78.5277 57.2893 78.7246C57.2535 78.9215 57.2177 79.097 57.1819 79.251C57.1497 79.4049 57.1264 79.5142 57.1121 79.5786L56.3548 83H53.8465L51.9021 75.1475H53.9485L54.8025 79.0845C54.824 79.1812 54.8526 79.319 54.8885 79.498C54.9278 79.6735 54.9672 79.8669 55.0066 80.0781C55.0496 80.2858 55.089 80.4863 55.1248 80.6797C55.1606 80.873 55.1857 81.0342 55.2 81.1631C55.2286 80.9411 55.2662 80.6886 55.3128 80.4058C55.3629 80.1229 55.4166 79.8364 55.4739 79.5464C55.5348 79.2528 55.5921 78.9806 55.6458 78.73C55.6995 78.4793 55.746 78.2752 55.7854 78.1177L56.4783 75.1475H58.4441L59.1155 78.1177C59.1513 78.2716 59.1961 78.4757 59.2498 78.73C59.3071 78.9806 59.3644 79.2528 59.4217 79.5464C59.4825 79.84 59.538 80.13 59.5882 80.4165C59.6383 80.6994 59.6759 80.9482 59.701 81.1631C59.7224 80.984 59.7582 80.7585 59.8084 80.4863C59.8585 80.2106 59.9086 79.9438 59.9588 79.686C60.0125 79.4246 60.0537 79.2277 60.0823 79.0952L60.9524 75.1475H62.9988ZM71.6916 79.063C71.6916 79.6681 71.6182 80.2196 71.4714 80.7173C71.3282 81.2114 71.1026 81.6375 70.7946 81.9956C70.4867 82.3537 70.091 82.6294 69.6076 82.8228C69.1242 83.0125 68.5459 83.1074 67.8728 83.1074C67.2139 83.1074 66.6428 83.0125 66.1594 82.8228C65.6796 82.6294 65.2839 82.3555 64.9724 82.001C64.6608 81.6429 64.4299 81.215 64.2795 80.7173C64.1291 80.2196 64.0539 79.6646 64.0539 79.0522C64.0539 78.2358 64.1882 77.5269 64.4567 76.9253C64.7289 76.3201 65.1478 75.8529 65.7136 75.5234C66.2793 75.1904 67.0026 75.0239 67.8835 75.0239C68.7787 75.0239 69.5056 75.1904 70.0642 75.5234C70.6263 75.8564 71.0381 76.3255 71.2995 76.9307C71.5609 77.5358 71.6916 78.2466 71.6916 79.063ZM66.2883 79.063C66.2883 79.5356 66.342 79.9421 66.4494 80.2822C66.5568 80.6224 66.7269 80.8838 66.9597 81.0664C67.1924 81.249 67.4968 81.3403 67.8728 81.3403C68.2631 81.3403 68.5728 81.249 68.802 81.0664C69.0347 80.8838 69.2012 80.6224 69.3015 80.2822C69.4053 79.9421 69.4572 79.5356 69.4572 79.063C69.4572 78.354 69.3391 77.7936 69.1027 77.3818C68.8664 76.9701 68.46 76.7642 67.8835 76.7642C67.5004 76.7642 67.1906 76.8573 66.9543 77.0435C66.7215 77.2297 66.5515 77.4946 66.444 77.8384C66.3402 78.1821 66.2883 78.5903 66.2883 79.063ZM76.0123 75.1475C76.7249 75.1475 77.3175 75.2352 77.7902 75.4106C78.2628 75.5825 78.6173 75.8403 78.8536 76.1841C79.0935 76.5278 79.2135 76.9557 79.2135 77.4678C79.2135 77.7865 79.1598 78.0765 79.0524 78.3379C78.9449 78.5993 78.791 78.8338 78.5904 79.0415C78.3935 79.2456 78.1572 79.4246 77.8815 79.5786L80.1695 83H77.7633L76.0983 80.1426H75.5611V83H73.4396V75.1475H76.0123ZM75.9801 76.7534H75.5611V78.5474H75.9586C76.2845 78.5474 76.5512 78.4757 76.7589 78.3325C76.9666 78.1893 77.0704 77.9333 77.0704 77.5645C77.0704 77.3102 76.9845 77.1115 76.8126 76.9683C76.6407 76.825 76.3632 76.7534 75.9801 76.7534ZM81.2139 83V75.1475H83.3355V81.2866H86.3594V83H81.2139ZM94.6118 78.9072C94.6118 79.8203 94.4417 80.5794 94.1015 81.1846C93.7614 81.7897 93.2815 82.2445 92.6621 82.5488C92.0462 82.8496 91.3211 83 90.4868 83H87.9463V75.1475H90.664C91.5091 75.1475 92.2252 75.2925 92.8125 75.5825C93.3997 75.8726 93.8455 76.2969 94.1499 76.8555C94.4578 77.4141 94.6118 78.098 94.6118 78.9072ZM92.4096 78.9824C92.4096 78.5062 92.3452 78.1123 92.2163 77.8008C92.0909 77.4857 91.9012 77.2511 91.6469 77.0972C91.3927 76.9396 91.0722 76.8608 90.6855 76.8608H90.0678V81.2598H90.5405C91.185 81.2598 91.6577 81.0736 91.9585 80.7012C92.2592 80.3252 92.4096 79.7523 92.4096 78.9824ZM98.0678 75.1582L98.1483 75.2764C98.0839 75.5413 97.9997 75.8582 97.8959 76.2271C97.792 76.5923 97.6792 76.9593 97.5575 77.3281C97.4393 77.6969 97.3194 78.0174 97.1976 78.2896H95.7045C95.7582 78.0389 95.8101 77.7775 95.8602 77.5054C95.9139 77.2297 95.9641 76.9539 96.0106 76.6782C96.0572 76.4025 96.0984 76.1357 96.1342 75.8779C96.1736 75.6165 96.2058 75.3766 96.2308 75.1582H98.0678ZM104.569 80.6152C104.569 81.0413 104.462 81.446 104.247 81.8291C104.032 82.2087 103.697 82.5166 103.242 82.7529C102.791 82.9893 102.208 83.1074 101.492 83.1074C101.133 83.1074 100.818 83.0913 100.546 83.0591C100.278 83.0269 100.027 82.9749 99.7942 82.9033C99.5615 82.8281 99.3198 82.7314 99.0691 82.6133V80.7227C99.4952 80.9375 99.9249 81.1022 100.358 81.2168C100.791 81.3278 101.184 81.3833 101.534 81.3833C101.746 81.3833 101.918 81.3582 102.05 81.3081C102.186 81.258 102.286 81.1899 102.351 81.104C102.415 81.0145 102.448 80.9124 102.448 80.7979C102.448 80.6618 102.399 80.5472 102.303 80.4541C102.209 80.3574 102.059 80.2572 101.851 80.1533C101.644 80.0495 101.37 79.9206 101.03 79.7666C100.74 79.6305 100.476 79.4909 100.24 79.3477C100.007 79.2044 99.8068 79.0415 99.6385 78.8589C99.4738 78.6727 99.3466 78.4561 99.2571 78.209C99.1676 77.9619 99.1228 77.6701 99.1228 77.3335C99.1228 76.8286 99.2464 76.4061 99.4935 76.0659C99.7441 75.7222 100.091 75.4644 100.535 75.2925C100.983 75.1206 101.499 75.0347 102.082 75.0347C102.594 75.0347 103.054 75.092 103.463 75.2065C103.874 75.3211 104.243 75.4518 104.569 75.5986L103.919 77.2368C103.583 77.0828 103.251 76.9611 102.926 76.8716C102.6 76.7785 102.297 76.7319 102.018 76.7319C101.835 76.7319 101.685 76.7552 101.567 76.8018C101.452 76.8447 101.366 76.9038 101.309 76.979C101.255 77.0542 101.228 77.1401 101.228 77.2368C101.228 77.3586 101.275 77.4678 101.368 77.5645C101.465 77.6611 101.624 77.7668 101.846 77.8813C102.072 77.9924 102.378 78.1374 102.764 78.3164C103.148 78.4883 103.473 78.6745 103.742 78.875C104.011 79.0719 104.215 79.3101 104.354 79.5894C104.498 79.8651 104.569 80.207 104.569 80.6152Z" fill="#323942"/>
<path d="M76.786 58.2515L76.537 59.646H78.5541V61.7544H76.1469L75.5326 65H73.308L73.9139 61.7544H72.5194L71.9301 65H69.7137L70.3114 61.7544H68.4437V59.646H70.7181L70.9755 58.2515H68.9999V56.0933H71.3822L71.9799 52.8643H74.2045L73.5902 56.0933H74.9681L75.5658 52.8643H77.7904L77.1845 56.0933H79.0853V58.2515H76.786ZM72.9345 59.646H74.3041L74.5614 58.2515H73.1835L72.9345 59.646ZM89.2159 65H80.4088V62.8418L83.3722 59.8452C83.9864 59.2033 84.4624 58.6886 84.7999 58.3013C85.143 57.9139 85.3837 57.5846 85.5221 57.3135C85.6604 57.0423 85.7296 56.7601 85.7296 56.4668C85.7296 56.1071 85.6134 55.847 85.381 55.6865C85.1486 55.526 84.8746 55.4458 84.5592 55.4458C84.1774 55.4458 83.79 55.5565 83.3971 55.7778C83.0097 55.9937 82.5698 56.3146 82.0773 56.7407L80.276 54.6323C80.6412 54.3058 81.0286 53.9959 81.4381 53.7026C81.8476 53.4038 82.3318 53.1603 82.8907 52.9722C83.4497 52.784 84.1303 52.6899 84.9327 52.6899C85.7573 52.6899 86.4711 52.8338 87.0743 53.1216C87.6831 53.4093 88.1534 53.805 88.4855 54.3086C88.8175 54.8066 88.9835 55.3739 88.9835 56.0103C88.9835 56.7131 88.8535 57.3411 88.5934 57.8945C88.3388 58.4424 87.9542 58.993 87.4396 59.5464C86.9249 60.0942 86.283 60.7168 85.5138 61.4141L84.6256 62.2109V62.2939H89.2159V65Z" fill="#323942"/>
<path opacity="0.8" d="M48.0028 96.6665L46.3583 91.897H46.3231C46.3309 92.0037 46.3401 92.1496 46.3505 92.3345C46.3609 92.5194 46.37 92.7173 46.3778 92.9282C46.3856 93.1392 46.3895 93.341 46.3895 93.5337V96.6665H45.538V90.9556H46.8544L48.4364 95.5142H48.4599L50.0966 90.9556H51.4091V96.6665H50.5145V93.4868C50.5145 93.3123 50.5171 93.1235 50.5224 92.9204C50.5302 92.7173 50.538 92.5246 50.5458 92.3423C50.5562 92.16 50.564 92.0142 50.5692 91.9048H50.538L48.8309 96.6665H48.0028ZM56.6474 94.4946C56.6474 94.854 56.6005 95.173 56.5067 95.4517C56.413 95.7303 56.2763 95.966 56.0966 96.1587C55.9169 96.3488 55.7007 96.4946 55.4481 96.5962C55.1955 96.6951 54.9104 96.7446 54.5927 96.7446C54.2958 96.7446 54.0237 96.6951 53.7763 96.5962C53.5289 96.4946 53.314 96.3488 53.1317 96.1587C52.952 95.966 52.8127 95.7303 52.7138 95.4517C52.6148 95.173 52.5653 94.854 52.5653 94.4946C52.5653 94.0181 52.6474 93.6144 52.8114 93.2837C52.9781 92.9504 53.2151 92.6965 53.5224 92.522C53.8296 92.3475 54.1955 92.2603 54.62 92.2603C55.0184 92.2603 55.37 92.3475 55.6747 92.522C55.9794 92.6965 56.2177 92.9504 56.3895 93.2837C56.5614 93.617 56.6474 94.0207 56.6474 94.4946ZM53.5106 94.4946C53.5106 94.8097 53.5484 95.0793 53.6239 95.3032C53.702 95.5272 53.8218 95.6991 53.9833 95.8188C54.1447 95.936 54.3531 95.9946 54.6083 95.9946C54.8635 95.9946 55.0718 95.936 55.2333 95.8188C55.3947 95.6991 55.5132 95.5272 55.5888 95.3032C55.6643 95.0793 55.702 94.8097 55.702 94.4946C55.702 94.1795 55.6643 93.9126 55.5888 93.6938C55.5132 93.4725 55.3947 93.3045 55.2333 93.1899C55.0718 93.0728 54.8622 93.0142 54.6044 93.0142C54.2242 93.0142 53.9468 93.1418 53.7724 93.397C53.5979 93.6522 53.5106 94.0181 53.5106 94.4946ZM60.6083 95.4321C60.6083 95.716 60.5393 95.9556 60.4013 96.1509C60.2632 96.3462 60.0614 96.4946 59.7958 96.5962C59.5328 96.6951 59.2099 96.7446 58.827 96.7446C58.525 96.7446 58.2645 96.7225 58.0458 96.6782C57.8296 96.6366 57.6252 96.5715 57.4325 96.4829V95.6899C57.6382 95.7863 57.8687 95.8696 58.1239 95.9399C58.3817 96.0103 58.6252 96.0454 58.8544 96.0454C59.1565 96.0454 59.3739 95.9985 59.5067 95.9048C59.6395 95.8084 59.7059 95.6808 59.7059 95.522C59.7059 95.4282 59.6786 95.3449 59.6239 95.272C59.5718 95.1965 59.4729 95.1196 59.327 95.0415C59.1838 94.9608 58.9729 94.8644 58.6942 94.7524C58.4208 94.6431 58.1903 94.5337 58.0028 94.4243C57.8153 94.3149 57.6734 94.1834 57.577 94.0298C57.4807 93.8735 57.4325 93.6743 57.4325 93.4321C57.4325 93.0493 57.5836 92.759 57.8856 92.561C58.1903 92.3605 58.5927 92.2603 59.0927 92.2603C59.3583 92.2603 59.6083 92.2876 59.8427 92.3423C60.0796 92.3944 60.3114 92.4712 60.538 92.5728L60.2489 93.2642C60.0536 93.1782 59.857 93.1079 59.6591 93.0532C59.4638 92.9959 59.2645 92.9673 59.0614 92.9673C58.8244 92.9673 58.6434 93.0037 58.5184 93.0767C58.3961 93.1496 58.3349 93.2537 58.3349 93.3892C58.3349 93.4907 58.3648 93.5767 58.4247 93.647C58.4846 93.7173 58.5875 93.7876 58.7333 93.8579C58.8817 93.9282 59.0875 94.0155 59.3505 94.1196C59.6083 94.2186 59.8309 94.3228 60.0184 94.4321C60.2086 94.5389 60.3544 94.6704 60.4559 94.8267C60.5575 94.9829 60.6083 95.1847 60.6083 95.4321ZM63.2099 96.0024C63.3296 96.0024 63.4481 95.992 63.5653 95.9712C63.6825 95.9478 63.7893 95.9204 63.8856 95.8892V96.5845C63.7841 96.6287 63.6526 96.6665 63.4911 96.6978C63.3296 96.729 63.1617 96.7446 62.9872 96.7446C62.7424 96.7446 62.5224 96.7043 62.327 96.6235C62.1317 96.5402 61.9768 96.3983 61.8622 96.1978C61.7476 95.9972 61.6903 95.7199 61.6903 95.3657V93.0415H61.1005V92.6313L61.7333 92.3071L62.0341 91.3813H62.6122V92.3423H63.8505V93.0415H62.6122V95.354C62.6122 95.5728 62.6669 95.7355 62.7763 95.8423C62.8856 95.9491 63.0302 96.0024 63.2099 96.0024ZM68.2958 96.7446C67.7802 96.7446 67.3661 96.5571 67.0536 96.1821C66.7437 95.8045 66.5888 95.2485 66.5888 94.5142C66.5888 93.772 66.7463 93.2108 67.0614 92.8306C67.3791 92.4504 67.7971 92.2603 68.3153 92.2603C68.5341 92.2603 68.7255 92.2902 68.8895 92.3501C69.0536 92.4074 69.1942 92.4855 69.3114 92.5845C69.4312 92.6834 69.5328 92.7941 69.6161 92.9165H69.6591C69.6461 92.8358 69.6304 92.7199 69.6122 92.5688C69.5966 92.4152 69.5888 92.2733 69.5888 92.1431V90.5884H70.5106V96.6665H69.7919L69.6278 96.0767H69.5888C69.5106 96.2017 69.4117 96.3149 69.2919 96.4165C69.1747 96.5155 69.0341 96.5949 68.87 96.6548C68.7086 96.7147 68.5171 96.7446 68.2958 96.7446ZM68.5536 95.9985C68.9468 95.9985 69.2242 95.8853 69.3856 95.6587C69.5471 95.4321 69.6304 95.0923 69.6356 94.6392V94.5181C69.6356 94.0337 69.5575 93.6626 69.4013 93.4048C69.245 93.1444 68.9599 93.0142 68.5458 93.0142C68.2151 93.0142 67.9625 93.1483 67.788 93.4165C67.6161 93.6821 67.5302 94.0532 67.5302 94.5298C67.5302 95.0063 67.6161 95.3709 67.788 95.6235C67.9625 95.8735 68.2177 95.9985 68.5536 95.9985ZM75.6552 94.4946C75.6552 94.854 75.6083 95.173 75.5145 95.4517C75.4208 95.7303 75.2841 95.966 75.1044 96.1587C74.9247 96.3488 74.7086 96.4946 74.4559 96.5962C74.2033 96.6951 73.9182 96.7446 73.6005 96.7446C73.3036 96.7446 73.0315 96.6951 72.7841 96.5962C72.5367 96.4946 72.3218 96.3488 72.1395 96.1587C71.9599 95.966 71.8205 95.7303 71.7216 95.4517C71.6226 95.173 71.5731 94.854 71.5731 94.4946C71.5731 94.0181 71.6552 93.6144 71.8192 93.2837C71.9859 92.9504 72.2229 92.6965 72.5302 92.522C72.8375 92.3475 73.2033 92.2603 73.6278 92.2603C74.0263 92.2603 74.3778 92.3475 74.6825 92.522C74.9872 92.6965 75.2255 92.9504 75.3974 93.2837C75.5692 93.617 75.6552 94.0207 75.6552 94.4946ZM72.5184 94.4946C72.5184 94.8097 72.5562 95.0793 72.6317 95.3032C72.7099 95.5272 72.8296 95.6991 72.9911 95.8188C73.1526 95.936 73.3609 95.9946 73.6161 95.9946C73.8713 95.9946 74.0796 95.936 74.2411 95.8188C74.4026 95.6991 74.5211 95.5272 74.5966 95.3032C74.6721 95.0793 74.7099 94.8097 74.7099 94.4946C74.7099 94.1795 74.6721 93.9126 74.5966 93.6938C74.5211 93.4725 74.4026 93.3045 74.2411 93.1899C74.0796 93.0728 73.87 93.0142 73.6122 93.0142C73.232 93.0142 72.9546 93.1418 72.7802 93.397C72.6057 93.6522 72.5184 94.0181 72.5184 94.4946ZM80.245 96.6626L79.6981 94.6509C79.6721 94.5519 79.6408 94.4321 79.6044 94.2915C79.5679 94.1509 79.5315 94.0063 79.495 93.8579C79.4586 93.7069 79.4247 93.5675 79.3934 93.4399C79.3648 93.3123 79.3427 93.2134 79.327 93.1431H79.2958C79.2828 93.2134 79.2619 93.3123 79.2333 93.4399C79.2046 93.5675 79.1721 93.7069 79.1356 93.8579C79.0992 94.009 79.0627 94.1561 79.0263 94.2993C78.9924 94.4425 78.9612 94.5649 78.9325 94.6665L78.3583 96.6626H77.3505L76.1395 92.3384H77.0692L77.6317 94.4868C77.6682 94.6326 77.7033 94.7902 77.7372 94.9595C77.7737 95.1287 77.8049 95.2902 77.8309 95.4438C77.857 95.5975 77.8765 95.7238 77.8895 95.8228H77.9208C77.9312 95.7524 77.9455 95.6639 77.9638 95.5571C77.982 95.4478 78.0028 95.3345 78.0263 95.2173C78.0497 95.0975 78.0731 94.9855 78.0966 94.8813C78.12 94.7746 78.1421 94.6886 78.163 94.6235L78.827 92.3384H79.8309L80.4677 94.6235C80.4963 94.7225 80.5276 94.8475 80.5614 94.9985C80.5953 95.147 80.6252 95.2967 80.6513 95.4478C80.6799 95.5962 80.6981 95.7199 80.7059 95.8188H80.7372C80.7476 95.7303 80.7658 95.6105 80.7919 95.4595C80.8205 95.3058 80.8531 95.1431 80.8895 94.9712C80.926 94.7967 80.9638 94.6353 81.0028 94.4868L81.577 92.3384H82.4911L81.2724 96.6626H80.245ZM85.4872 92.2603C85.9742 92.2603 86.3531 92.3866 86.6239 92.6392C86.8974 92.8892 87.0341 93.2915 87.0341 93.8462V96.6665H86.1161V94.0181C86.1161 93.6821 86.0471 93.4308 85.9091 93.2642C85.7711 93.0949 85.5575 93.0103 85.2684 93.0103C84.8492 93.0103 84.5575 93.1392 84.3934 93.397C84.232 93.6548 84.1513 94.0285 84.1513 94.5181V96.6665H83.2333V92.3423H83.9481L84.077 92.9282H84.1278C84.2216 92.7772 84.3375 92.6535 84.4755 92.5571C84.6161 92.4582 84.7724 92.384 84.9442 92.3345C85.1187 92.285 85.2997 92.2603 85.4872 92.2603ZM89.2411 96.6665H88.3192V90.5884H89.2411V96.6665ZM94.3817 94.4946C94.3817 94.854 94.3349 95.173 94.2411 95.4517C94.1474 95.7303 94.0106 95.966 93.8309 96.1587C93.6513 96.3488 93.4351 96.4946 93.1825 96.5962C92.9299 96.6951 92.6447 96.7446 92.327 96.7446C92.0302 96.7446 91.758 96.6951 91.5106 96.5962C91.2632 96.4946 91.0484 96.3488 90.8661 96.1587C90.6864 95.966 90.5471 95.7303 90.4481 95.4517C90.3492 95.173 90.2997 94.854 90.2997 94.4946C90.2997 94.0181 90.3817 93.6144 90.5458 93.2837C90.7125 92.9504 90.9494 92.6965 91.2567 92.522C91.564 92.3475 91.9299 92.2603 92.3544 92.2603C92.7528 92.2603 93.1044 92.3475 93.4091 92.522C93.7138 92.6965 93.952 92.9504 94.1239 93.2837C94.2958 93.617 94.3817 94.0207 94.3817 94.4946ZM91.245 94.4946C91.245 94.8097 91.2828 95.0793 91.3583 95.3032C91.4364 95.5272 91.5562 95.6991 91.7177 95.8188C91.8791 95.936 92.0875 95.9946 92.3427 95.9946C92.5979 95.9946 92.8062 95.936 92.9677 95.8188C93.1291 95.6991 93.2476 95.5272 93.3231 95.3032C93.3987 95.0793 93.4364 94.8097 93.4364 94.4946C93.4364 94.1795 93.3987 93.9126 93.3231 93.6938C93.2476 93.4725 93.1291 93.3045 92.9677 93.1899C92.8062 93.0728 92.5966 93.0142 92.3388 93.0142C91.9586 93.0142 91.6812 93.1418 91.5067 93.397C91.3322 93.6522 91.245 94.0181 91.245 94.4946ZM97.1317 92.2603C97.6786 92.2603 98.0914 92.3813 98.37 92.6235C98.6513 92.8657 98.7919 93.2433 98.7919 93.7563V96.6665H98.1395L97.9638 96.0532H97.9325C97.8101 96.2095 97.6838 96.3384 97.5536 96.4399C97.4234 96.5415 97.2724 96.617 97.1005 96.6665C96.9312 96.7186 96.7242 96.7446 96.4794 96.7446C96.2216 96.7446 95.9911 96.6978 95.788 96.604C95.5849 96.5076 95.4247 96.3618 95.3075 96.1665C95.1903 95.9712 95.1317 95.7238 95.1317 95.4243C95.1317 94.979 95.2971 94.6444 95.6278 94.4204C95.9612 94.1965 96.4638 94.0728 97.1356 94.0493L97.8856 94.022V93.7954C97.8856 93.4959 97.8153 93.2824 97.6747 93.1548C97.5367 93.0272 97.3414 92.9634 97.0888 92.9634C96.8726 92.9634 96.663 92.9946 96.4599 93.0571C96.2567 93.1196 96.0588 93.1965 95.8661 93.2876L95.5692 92.6392C95.7802 92.5272 96.0197 92.436 96.288 92.3657C96.5588 92.2954 96.8401 92.2603 97.1317 92.2603ZM97.8817 94.6001L97.3231 94.6196C96.8648 94.6353 96.5432 94.7134 96.3583 94.854C96.1734 94.9946 96.0809 95.1873 96.0809 95.4321C96.0809 95.6457 96.1447 95.8019 96.2724 95.9009C96.4 95.9972 96.5679 96.0454 96.7763 96.0454C97.094 96.0454 97.357 95.9556 97.5653 95.7759C97.7763 95.5936 97.8817 95.3267 97.8817 94.9751V94.6001ZM101.53 96.7446C101.015 96.7446 100.6 96.5571 100.288 96.1821C99.9781 95.8045 99.8231 95.2485 99.8231 94.5142C99.8231 93.772 99.9807 93.2108 100.296 92.8306C100.613 92.4504 101.031 92.2603 101.55 92.2603C101.768 92.2603 101.96 92.2902 102.124 92.3501C102.288 92.4074 102.429 92.4855 102.546 92.5845C102.666 92.6834 102.767 92.7941 102.85 92.9165H102.893C102.88 92.8358 102.865 92.7199 102.847 92.5688C102.831 92.4152 102.823 92.2733 102.823 92.1431V90.5884H103.745V96.6665H103.026L102.862 96.0767H102.823C102.745 96.2017 102.646 96.3149 102.526 96.4165C102.409 96.5155 102.268 96.5949 102.104 96.6548C101.943 96.7147 101.752 96.7446 101.53 96.7446ZM101.788 95.9985C102.181 95.9985 102.459 95.8853 102.62 95.6587C102.781 95.4321 102.865 95.0923 102.87 94.6392V94.5181C102.87 94.0337 102.792 93.6626 102.636 93.4048C102.479 93.1444 102.194 93.0142 101.78 93.0142C101.449 93.0142 101.197 93.1483 101.022 93.4165C100.85 93.6821 100.765 94.0532 100.765 94.5298C100.765 95.0063 100.85 95.3709 101.022 95.6235C101.197 95.8735 101.452 95.9985 101.788 95.9985ZM106.784 92.2603C107.169 92.2603 107.5 92.3397 107.776 92.4985C108.052 92.6574 108.265 92.8826 108.413 93.1743C108.561 93.466 108.636 93.8149 108.636 94.2212V94.7134H105.749C105.759 95.1326 105.871 95.4556 106.085 95.6821C106.301 95.9087 106.603 96.022 106.991 96.022C107.267 96.022 107.515 95.9959 107.733 95.9438C107.955 95.8892 108.183 95.8097 108.417 95.7056V96.4517C108.201 96.5532 107.981 96.6274 107.757 96.6743C107.533 96.7212 107.265 96.7446 106.952 96.7446C106.528 96.7446 106.154 96.6626 105.831 96.4985C105.511 96.3319 105.259 96.0845 105.077 95.7563C104.897 95.4282 104.808 95.0207 104.808 94.5337C104.808 94.0493 104.89 93.6379 105.054 93.2993C105.218 92.9608 105.448 92.703 105.745 92.5259C106.042 92.3488 106.388 92.2603 106.784 92.2603ZM106.784 92.9517C106.495 92.9517 106.261 93.0454 106.081 93.2329C105.904 93.4204 105.8 93.6951 105.768 94.0571H107.737C107.735 93.841 107.698 93.6496 107.628 93.4829C107.56 93.3162 107.456 93.186 107.315 93.0923C107.177 92.9985 107 92.9517 106.784 92.9517ZM111.124 96.7446C110.608 96.7446 110.194 96.5571 109.882 96.1821C109.572 95.8045 109.417 95.2485 109.417 94.5142C109.417 93.772 109.574 93.2108 109.89 92.8306C110.207 92.4504 110.625 92.2603 111.143 92.2603C111.362 92.2603 111.554 92.2902 111.718 92.3501C111.882 92.4074 112.022 92.4855 112.14 92.5845C112.259 92.6834 112.361 92.7941 112.444 92.9165H112.487C112.474 92.8358 112.459 92.7199 112.44 92.5688C112.425 92.4152 112.417 92.2733 112.417 92.1431V90.5884H113.339V96.6665H112.62L112.456 96.0767H112.417C112.339 96.2017 112.24 96.3149 112.12 96.4165C112.003 96.5155 111.862 96.5949 111.698 96.6548C111.537 96.7147 111.345 96.7446 111.124 96.7446ZM111.382 95.9985C111.775 95.9985 112.052 95.8853 112.214 95.6587C112.375 95.4321 112.459 95.0923 112.464 94.6392V94.5181C112.464 94.0337 112.386 93.6626 112.229 93.4048C112.073 93.1444 111.788 93.0142 111.374 93.0142C111.043 93.0142 110.791 93.1483 110.616 93.4165C110.444 93.6821 110.358 94.0532 110.358 94.5298C110.358 95.0063 110.444 95.3709 110.616 95.6235C110.791 95.8735 111.046 95.9985 111.382 95.9985ZM60.7684 103.26C61.2528 103.26 61.6174 103.385 61.8622 103.635C62.1096 103.885 62.2333 104.286 62.2333 104.838V107.667H61.3153V105.002C61.3153 104.674 61.2515 104.427 61.1239 104.26C60.9963 104.094 60.8023 104.01 60.5419 104.01C60.1773 104.01 59.9143 104.127 59.7528 104.362C59.594 104.594 59.5145 104.931 59.5145 105.374V107.667H58.5966V105.002C58.5966 104.784 58.5679 104.601 58.5106 104.456C58.4559 104.307 58.3713 104.196 58.2567 104.124C58.1421 104.048 57.9976 104.01 57.8231 104.01C57.5705 104.01 57.3687 104.068 57.2177 104.182C57.0692 104.297 56.9625 104.466 56.8974 104.69C56.8322 104.911 56.7997 105.183 56.7997 105.506V107.667H55.8817V103.342H56.5966L56.7255 103.924H56.7763C56.8648 103.773 56.9742 103.65 57.1044 103.553C57.2372 103.454 57.3843 103.381 57.5458 103.334C57.7072 103.285 57.8752 103.26 58.0497 103.26C58.3726 103.26 58.6447 103.318 58.8661 103.432C59.0875 103.544 59.2528 103.716 59.3622 103.948H59.4325C59.5679 103.713 59.7567 103.54 59.9989 103.428C60.2411 103.316 60.4976 103.26 60.7684 103.26ZM67.3427 105.495C67.3427 105.854 67.2958 106.173 67.202 106.452C67.1083 106.73 66.9716 106.966 66.7919 107.159C66.6122 107.349 66.3961 107.495 66.1434 107.596C65.8908 107.695 65.6057 107.745 65.288 107.745C64.9911 107.745 64.719 107.695 64.4716 107.596C64.2242 107.495 64.0093 107.349 63.827 107.159C63.6474 106.966 63.508 106.73 63.4091 106.452C63.3101 106.173 63.2606 105.854 63.2606 105.495C63.2606 105.018 63.3427 104.614 63.5067 104.284C63.6734 103.95 63.9104 103.696 64.2177 103.522C64.525 103.347 64.8908 103.26 65.3153 103.26C65.7138 103.26 66.0653 103.347 66.37 103.522C66.6747 103.696 66.913 103.95 67.0849 104.284C67.2567 104.617 67.3427 105.021 67.3427 105.495ZM64.2059 105.495C64.2059 105.81 64.2437 106.079 64.3192 106.303C64.3974 106.527 64.5171 106.699 64.6786 106.819C64.8401 106.936 65.0484 106.995 65.3036 106.995C65.5588 106.995 65.7671 106.936 65.9286 106.819C66.0901 106.699 66.2086 106.527 66.2841 106.303C66.3596 106.079 66.3974 105.81 66.3974 105.495C66.3974 105.18 66.3596 104.913 66.2841 104.694C66.2086 104.472 66.0901 104.305 65.9286 104.19C65.7671 104.073 65.5575 104.014 65.2997 104.014C64.9195 104.014 64.6421 104.142 64.4677 104.397C64.2932 104.652 64.2059 105.018 64.2059 105.495ZM69.3153 101.588V103.053C69.3153 103.222 69.3101 103.389 69.2997 103.553C69.2919 103.715 69.2841 103.841 69.2763 103.932H69.3153C69.4325 103.745 69.5953 103.587 69.8036 103.459C70.0145 103.329 70.2841 103.264 70.6122 103.264C71.1252 103.264 71.538 103.453 71.8505 103.831C72.163 104.206 72.3192 104.762 72.3192 105.499C72.3192 105.988 72.2476 106.4 72.1044 106.733C71.9612 107.066 71.7593 107.319 71.4989 107.491C71.2411 107.66 70.9377 107.745 70.5888 107.745C70.2606 107.745 69.995 107.685 69.7919 107.565C69.5914 107.443 69.4338 107.301 69.3192 107.139H69.2528L69.0849 107.667H68.3974V101.588H69.3153ZM70.37 104.01C70.1096 104.01 69.9026 104.062 69.7489 104.167C69.5979 104.271 69.4885 104.427 69.4208 104.635C69.3531 104.841 69.3179 105.103 69.3153 105.42V105.502C69.3153 105.984 69.3908 106.353 69.5419 106.608C69.6955 106.863 69.9742 106.991 70.3778 106.991C70.6981 106.991 70.9442 106.862 71.1161 106.604C71.288 106.344 71.3739 105.971 71.3739 105.487C71.3739 104.997 71.288 104.629 71.1161 104.381C70.9468 104.134 70.6981 104.01 70.37 104.01ZM74.2997 103.342V107.667H73.3817V103.342H74.2997ZM73.8466 101.686C73.9872 101.686 74.1083 101.724 74.2099 101.799C74.314 101.875 74.3661 102.005 74.3661 102.19C74.3661 102.372 74.314 102.502 74.2099 102.581C74.1083 102.656 73.9872 102.694 73.8466 102.694C73.7007 102.694 73.577 102.656 73.4755 102.581C73.3765 102.502 73.327 102.372 73.327 102.19C73.327 102.005 73.3765 101.875 73.4755 101.799C73.577 101.724 73.7007 101.686 73.8466 101.686ZM76.538 107.667H75.6161V101.588H76.538V107.667ZM78.7684 103.342V107.667H77.8505V103.342H78.7684ZM78.3153 101.686C78.4559 101.686 78.577 101.724 78.6786 101.799C78.7828 101.875 78.8349 102.005 78.8349 102.19C78.8349 102.372 78.7828 102.502 78.6786 102.581C78.577 102.656 78.4559 102.694 78.3153 102.694C78.1695 102.694 78.0458 102.656 77.9442 102.581C77.8453 102.502 77.7958 102.372 77.7958 102.19C77.7958 102.005 77.8453 101.875 77.9442 101.799C78.0458 101.724 78.1695 101.686 78.3153 101.686ZM81.6942 107.002C81.814 107.002 81.9325 106.992 82.0497 106.971C82.1669 106.948 82.2737 106.92 82.37 106.889V107.584C82.2684 107.629 82.1369 107.667 81.9755 107.698C81.814 107.729 81.6461 107.745 81.4716 107.745C81.2268 107.745 81.0067 107.704 80.8114 107.624C80.6161 107.54 80.4612 107.398 80.3466 107.198C80.232 106.997 80.1747 106.72 80.1747 106.366V104.042H79.5849V103.631L80.2177 103.307L80.5184 102.381H81.0966V103.342H82.3349V104.042H81.0966V106.354C81.0966 106.573 81.1513 106.736 81.2606 106.842C81.37 106.949 81.5145 107.002 81.6942 107.002ZM82.5966 103.342H83.5966L84.4833 105.811C84.5224 105.923 84.5575 106.034 84.5888 106.143C84.6226 106.25 84.6513 106.355 84.6747 106.459C84.7007 106.564 84.7216 106.668 84.7372 106.772H84.7606C84.7867 106.637 84.8231 106.486 84.87 106.319C84.9195 106.15 84.9742 105.98 85.0341 105.811L85.8856 103.342H86.8739L85.0184 108.26C84.9117 108.542 84.7802 108.781 84.6239 108.979C84.4703 109.18 84.288 109.331 84.077 109.432C83.8661 109.536 83.6252 109.588 83.3544 109.588C83.2242 109.588 83.1109 109.581 83.0145 109.565C82.9182 109.552 82.8362 109.538 82.7684 109.522V108.788C82.8231 108.801 82.8921 108.812 82.9755 108.823C83.0588 108.833 83.1447 108.838 83.2333 108.838C83.3974 108.838 83.5393 108.806 83.6591 108.741C83.7789 108.676 83.8804 108.583 83.9638 108.463C84.0471 108.346 84.1161 108.212 84.1708 108.061L84.3231 107.655L82.5966 103.342ZM91.3036 103.26C91.8505 103.26 92.2632 103.381 92.5419 103.624C92.8231 103.866 92.9638 104.243 92.9638 104.756V107.667H92.3114L92.1356 107.053H92.1044C91.982 107.209 91.8557 107.338 91.7255 107.44C91.5953 107.542 91.4442 107.617 91.2724 107.667C91.1031 107.719 90.8961 107.745 90.6513 107.745C90.3934 107.745 90.163 107.698 89.9599 107.604C89.7567 107.508 89.5966 107.362 89.4794 107.167C89.3622 106.971 89.3036 106.724 89.3036 106.424C89.3036 105.979 89.469 105.644 89.7997 105.42C90.133 105.196 90.6356 105.073 91.3075 105.049L92.0575 105.022V104.795C92.0575 104.496 91.9872 104.282 91.8466 104.155C91.7086 104.027 91.5132 103.963 91.2606 103.963C91.0445 103.963 90.8349 103.995 90.6317 104.057C90.4286 104.12 90.2307 104.196 90.038 104.288L89.7411 103.639C89.952 103.527 90.1916 103.436 90.4599 103.366C90.7307 103.295 91.0119 103.26 91.3036 103.26ZM92.0536 105.6L91.495 105.62C91.0367 105.635 90.7151 105.713 90.5302 105.854C90.3453 105.995 90.2528 106.187 90.2528 106.432C90.2528 106.646 90.3166 106.802 90.4442 106.901C90.5718 106.997 90.7398 107.045 90.9481 107.045C91.2658 107.045 91.5289 106.956 91.7372 106.776C91.9481 106.594 92.0536 106.327 92.0536 105.975V105.6ZM96.4677 103.26C96.9807 103.26 97.3921 103.448 97.702 103.823C98.0145 104.198 98.1708 104.755 98.1708 105.495C98.1708 105.984 98.0979 106.397 97.952 106.733C97.8088 107.066 97.607 107.319 97.3466 107.491C97.0888 107.66 96.788 107.745 96.4442 107.745C96.2255 107.745 96.0354 107.716 95.8739 107.659C95.7125 107.601 95.5744 107.527 95.4599 107.436C95.3453 107.342 95.2489 107.241 95.1708 107.131H95.1161C95.1291 107.236 95.1408 107.351 95.1513 107.479C95.1643 107.604 95.1708 107.719 95.1708 107.823V109.584H94.2489V103.342H94.9989L95.1278 103.94H95.1708C95.2515 103.818 95.3492 103.704 95.4638 103.6C95.5809 103.496 95.7216 103.414 95.8856 103.354C96.0523 103.292 96.2463 103.26 96.4677 103.26ZM96.2216 104.01C95.969 104.01 95.7658 104.061 95.6122 104.163C95.4612 104.262 95.3505 104.411 95.2802 104.612C95.2125 104.812 95.176 105.064 95.1708 105.366V105.495C95.1708 105.815 95.2033 106.087 95.2684 106.311C95.3362 106.532 95.4468 106.702 95.6005 106.819C95.7567 106.933 95.9677 106.991 96.2333 106.991C96.4572 106.991 96.6421 106.93 96.788 106.807C96.9364 106.685 97.0471 106.51 97.12 106.284C97.1929 106.057 97.2294 105.79 97.2294 105.483C97.2294 105.017 97.1461 104.655 96.9794 104.397C96.8153 104.139 96.5627 104.01 96.2216 104.01ZM101.452 103.26C101.965 103.26 102.377 103.448 102.686 103.823C102.999 104.198 103.155 104.755 103.155 105.495C103.155 105.984 103.082 106.397 102.936 106.733C102.793 107.066 102.591 107.319 102.331 107.491C102.073 107.66 101.772 107.745 101.429 107.745C101.21 107.745 101.02 107.716 100.858 107.659C100.697 107.601 100.559 107.527 100.444 107.436C100.33 107.342 100.233 107.241 100.155 107.131H100.1C100.113 107.236 100.125 107.351 100.136 107.479C100.149 107.604 100.155 107.719 100.155 107.823V109.584H99.2333V103.342H99.9833L100.112 103.94H100.155C100.236 103.818 100.334 103.704 100.448 103.6C100.565 103.496 100.706 103.414 100.87 103.354C101.037 103.292 101.231 103.26 101.452 103.26ZM101.206 104.01C100.953 104.01 100.75 104.061 100.597 104.163C100.446 104.262 100.335 104.411 100.265 104.612C100.197 104.812 100.16 105.064 100.155 105.366V105.495C100.155 105.815 100.188 106.087 100.253 106.311C100.321 106.532 100.431 106.702 100.585 106.819C100.741 106.933 100.952 106.991 101.218 106.991C101.442 106.991 101.627 106.93 101.772 106.807C101.921 106.685 102.031 106.51 102.104 106.284C102.177 106.057 102.214 105.79 102.214 105.483C102.214 105.017 102.13 104.655 101.964 104.397C101.8 104.139 101.547 104.01 101.206 104.01Z" fill="#323942"/>
<defs>
<filter id="filter0_d_1448_33517" x="0" y="0" width="158" height="158" filterUnits="userSpaceOnUse" color-interpolation-filters="sRGB">
<feFlood flood-opacity="0" result="BackgroundImageFix"/>
<feColorMatrix in="SourceAlpha" type="matrix" values="0 0 0 0 0 0 0 0 0 0 0 0 0 0 0 0 0 0 127 0" result="hardAlpha"/>
<feOffset/>
<feGaussianBlur stdDeviation="12"/>
<feColorMatrix type="matrix" values="0 0 0 0 0.137255 0 0 0 0 0.121569 0 0 0 0 0.12549 0 0 0 0.12 0"/>
<feBlend mode="normal" in2="BackgroundImageFix" result="effect1_dropShadow_1448_33517"/>
<feBlend mode="normal" in="SourceGraphic" in2="effect1_dropShadow_1448_33517" result="shape"/>
</filter>
</defs>
</svg>
