<svg width="200" height="217" viewBox="0 0 200 217" fill="none" xmlns="http://www.w3.org/2000/svg">
<path d="M48.1232 126.893C48.416 126.671 33.3665 154.158 23.7044 178.917C21.5612 184.398 9.04139 213.302 6.44141 216.441L72.0735 216.371C83.305 195.032 109.68 192.01 128.489 179.83L91.3978 96.49C91.3978 96.49 76.8519 109.958 70.9844 115.756C65.1168 121.565 48.1232 126.893 48.1232 126.893Z" fill="#F2AB83"/>
<path d="M89.6876 98.4459L78.6904 107.897L61.8607 141.978L60.8418 169.29C60.8418 169.29 81.2318 175.626 90.2615 159.815C99.2795 144.004 89.6876 98.4459 89.6876 98.4459Z" fill="#CC6D50"/>
<path d="M156.175 72.6802C156.175 72.6802 186.531 58.5091 192.891 56.8695C199.262 55.2299 202.553 60.1253 197.587 65.583C192.621 71.0289 167.5 94.2063 167.5 94.2063L156.175 72.6802Z" fill="#F2AB83"/>
<path d="M176.881 63.2875L176.928 85.4928L182.631 80.0937L178.251 62.6902L176.881 63.2875Z" fill="#CC6D50"/>
<path fill-rule="evenodd" clip-rule="evenodd" d="M98.6706 0.0679512L165.076 0.0913745C171.587 0.0913745 176.904 5.42018 176.904 11.9201L176.846 175.567C176.846 182.079 171.517 187.396 165.017 187.396L96.9841 187.372C90.4841 187.372 85.1553 182.044 85.167 175.544L85.2139 11.8967C85.2256 5.40847 90.5192 0.0913745 97.0075 0.0679512H98.6706V0.0679512Z" fill="#00BE00"/>
<path fill-rule="evenodd" clip-rule="evenodd" d="M84.2891 29.9561H85.2143V36.9128H84.2891V29.9561Z" fill="#9B9B9B"/>
<path fill-rule="evenodd" clip-rule="evenodd" d="M84.2773 57.5605H85.2026L85.2143 43.5533H84.2891L84.2773 57.5605Z" fill="#9B9B9B"/>
<path fill-rule="evenodd" clip-rule="evenodd" d="M148.422 12.3183L113.451 12.3066C110.465 12.3066 108.017 9.8589 108.017 6.86071V4.26072H97.4767C95.3452 4.26072 93.4011 5.12739 91.9957 6.53278C90.5903 7.93818 89.7236 9.88232 89.7119 12.0021L89.665 175.427C89.665 177.558 90.5317 179.502 91.9371 180.908C93.3425 182.313 95.2866 183.18 97.4064 183.18L164.596 183.203C166.728 183.203 168.66 182.336 170.066 180.931C171.471 179.526 172.349 177.593 172.349 175.462L172.408 12.0373C172.408 9.90574 171.53 7.96161 170.124 6.55621C168.719 5.15081 166.786 4.28415 164.655 4.28415L153.857 4.27243V6.88413C153.857 9.87061 151.409 12.3183 148.422 12.3183Z" fill="#00BE00"/>
<path fill-rule="evenodd" clip-rule="evenodd" d="M97.4765 2.28146L164.655 2.30488C167.325 2.30488 169.761 3.40578 171.518 5.16252C173.286 6.93098 174.375 9.36701 174.375 12.0373L174.317 175.462C174.317 178.132 173.227 180.568 171.459 182.325C169.702 184.082 167.266 185.182 164.596 185.182L97.4062 185.159C94.736 185.159 92.2999 184.058 90.5432 182.301C88.7864 180.533 87.6855 178.097 87.6855 175.427L87.7441 12.0021C87.7441 9.33187 88.845 6.89585 90.6017 5.1391C92.3702 3.37064 94.7945 2.28146 97.4765 2.28146ZM164.655 4.28415L97.4765 4.26073C95.345 4.26073 93.4008 5.12739 91.9954 6.53279C90.59 7.93819 89.7234 9.88232 89.7234 12.0138L89.6648 175.427C89.6648 177.558 90.5315 179.502 91.9369 180.908C93.3423 182.313 95.2747 183.18 97.4062 183.18L164.596 183.203C166.728 183.203 168.66 182.336 170.065 180.931C171.471 179.526 172.349 177.593 172.349 175.462L172.408 12.0373C172.408 9.90575 171.529 7.96161 170.124 6.55621C168.718 5.15081 166.786 4.28415 164.655 4.28415Z" fill="#1A1A18"/>
<path fill-rule="evenodd" clip-rule="evenodd" d="M96.9146 4.26072H165.194C169.152 4.26072 172.396 7.50485 172.396 11.4634V175.989C172.396 179.947 169.152 183.18 165.194 183.18H96.9146C92.956 183.18 89.7119 179.947 89.7119 175.989V11.4634C89.7119 7.50485 92.956 4.26072 96.9146 4.26072Z" fill="white"/>
<path fill-rule="evenodd" clip-rule="evenodd" d="M176.882 70.7712L177.807 70.7595L177.819 47.8867H176.894L176.882 70.7712Z" fill="#9B9B9B"/>
<path fill-rule="evenodd" clip-rule="evenodd" d="M84.2773 75.4207H85.2026V61.4253H84.2773V75.4207Z" fill="#9B9B9B"/>
<path fill-rule="evenodd" clip-rule="evenodd" d="M108.017 2.31659L153.868 2.34001L153.856 6.88414C153.856 9.87061 151.408 12.3183 148.422 12.3183L113.451 12.3066C110.464 12.3066 108.017 9.8589 108.017 6.86071V2.31659Z" fill="#1A1A18"/>
<path d="M147.684 178.694H112.725C112.175 178.694 111.729 179.139 111.729 179.69C111.729 180.24 112.175 180.697 112.725 180.697H147.684C148.246 180.697 148.691 180.24 148.691 179.69C148.691 179.139 148.246 178.694 147.684 178.694Z" fill="white"/>
<path d="M147.696 178.694H112.725C112.596 178.682 112.456 178.706 112.327 178.753C112.198 178.8 112.081 178.87 111.975 178.964C111.882 179.057 111.8 179.174 111.741 179.291C111.694 179.42 111.659 179.561 111.659 179.69C111.659 179.83 111.694 179.971 111.741 180.088C111.8 180.217 111.882 180.334 111.975 180.427C112.081 180.521 112.198 180.591 112.327 180.638C112.456 180.685 112.596 180.697 112.725 180.697H147.696C147.942 180.673 148.188 180.568 148.364 180.381C148.527 180.193 148.633 179.947 148.633 179.69C148.633 179.444 148.527 179.198 148.364 179.01C148.188 178.823 147.942 178.718 147.696 178.694Z" fill="#222220"/>
<path fill-rule="evenodd" clip-rule="evenodd" d="M154.196 17.8814H99.5374C98.8815 17.8814 98.3428 18.4201 98.3428 19.076C98.3428 19.7435 98.8815 20.2823 99.5374 20.2823H154.196C154.852 20.2823 155.39 19.7435 155.39 19.076C155.39 18.4201 154.852 17.8814 154.196 17.8814Z" fill="#00BE00"/>
<path fill-rule="evenodd" clip-rule="evenodd" d="M128.325 22.4489H99.5374C98.8815 22.4489 98.3428 22.9877 98.3428 23.6552C98.3428 24.3111 98.8815 24.8498 99.5374 24.8498H128.325C128.992 24.8498 129.531 24.3111 129.531 23.6552C129.531 22.9877 128.992 22.4489 128.325 22.4489Z" fill="#00BE00"/>
<path d="M102.665 31.9002H159.209C159.865 31.9002 160.521 32.0291 161.13 32.2867C161.75 32.5327 162.301 32.9074 162.769 33.3759C163.238 33.8444 163.612 34.3948 163.858 35.0038C164.116 35.6128 164.245 36.2687 164.245 36.9363V169.079C164.245 170.519 163.671 171.913 162.652 172.932C161.633 173.951 160.239 174.525 158.799 174.525H103.075C101.634 174.525 100.252 173.951 99.2334 172.932C98.2145 171.913 97.6406 170.519 97.6406 169.079V36.9363C97.6406 35.6011 98.1676 34.3246 99.1046 33.3759C100.053 32.439 101.33 31.9002 102.665 31.9002Z" fill="#FFF5C9"/>
<path d="M102.665 32.3336C101.447 32.3336 100.275 32.8255 99.4205 33.6804C98.5539 34.5471 98.0737 35.7182 98.062 36.9362V169.079C98.0737 170.414 98.6007 171.679 99.5376 172.628C100.475 173.564 101.751 174.091 103.075 174.091H158.799C160.122 174.091 161.399 173.564 162.336 172.628C163.284 171.691 163.811 170.414 163.811 169.079V36.9362C163.811 35.7182 163.331 34.5471 162.464 33.6804C161.598 32.8255 160.438 32.3336 159.22 32.3336H102.665ZM158.799 174.958H103.075C101.517 174.958 100.03 174.337 98.9286 173.237C97.8278 172.136 97.207 170.637 97.207 169.079V36.9362C97.207 35.484 97.7809 34.102 98.8115 33.0714C99.8304 32.0525 101.224 31.4786 102.665 31.4786H159.209C160.661 31.4786 162.043 32.0525 163.073 33.0714C164.092 34.0903 164.678 35.484 164.678 36.9362V169.079C164.678 170.637 164.057 172.136 162.945 173.237C161.844 174.337 160.356 174.958 158.799 174.958Z" fill="#F6E93A"/>
<path d="M102.665 31.9002H159.209C159.876 31.9002 160.532 32.0291 161.141 32.2867C161.75 32.5327 162.301 32.9074 162.769 33.3759C163.238 33.8444 163.612 34.3948 163.858 35.0038C164.116 35.6128 164.245 36.2687 164.245 36.9363V47.6641H97.6406V36.9363C97.6406 35.6011 98.1676 34.3246 99.1046 33.3759C100.053 32.439 101.33 31.9002 102.665 31.9002Z" fill="#F6E035"/>
<path d="M143.843 36.3741H104.292C103.625 36.3741 103.086 36.9128 103.086 37.5687C103.086 38.2362 103.625 38.775 104.292 38.775H143.843C144.51 38.775 145.037 38.2362 145.037 37.5687C145.037 36.9128 144.51 36.3741 143.843 36.3741Z" fill="white"/>
<path d="M123.253 41.1993H104.292C103.625 41.1993 103.086 41.738 103.086 42.3939C103.086 43.0614 103.625 43.6002 104.292 43.6002H123.253C123.921 43.6002 124.46 43.0614 124.46 42.3939C124.46 41.738 123.921 41.1993 123.253 41.1993Z" fill="white"/>
<path fill-rule="evenodd" clip-rule="evenodd" d="M154.876 53.7542H121.521C120.853 53.7542 120.326 54.2812 120.326 54.9488C120.326 55.6163 120.853 56.1551 121.521 56.1551H154.876C155.543 56.1551 156.082 55.6163 156.082 54.9488C156.082 54.2812 155.543 53.7542 154.876 53.7542Z" fill="#999999"/>
<path fill-rule="evenodd" clip-rule="evenodd" d="M133.303 58.2749H121.521C120.853 58.2749 120.326 58.8019 120.326 59.4695C120.326 60.1371 120.853 60.6758 121.521 60.6758H133.303C133.959 60.6758 134.497 60.1371 134.497 59.4695C134.497 58.8019 133.959 58.2749 133.303 58.2749Z" fill="#999999"/>
<path d="M163.976 84.8604H97.875V85.7387H163.976V84.8604Z" fill="#F6E035"/>
<path d="M163.976 124.973H97.875V125.851H163.976V124.973Z" fill="#F6E035"/>
<path fill-rule="evenodd" clip-rule="evenodd" d="M152.041 68.4406H136.254C133.783 68.4406 131.78 70.4433 131.78 72.9145C131.78 75.3973 133.783 77.4 136.254 77.4H152.041C154.513 77.4 156.515 75.3973 156.515 72.9145C156.515 70.4433 154.513 68.4406 152.041 68.4406Z" fill="#00BE00"/>
<path d="M143.597 74.7766C143.504 74.7766 143.422 74.7532 143.34 74.7298C143.269 74.6946 143.199 74.6478 143.141 74.5892L141.63 73.0901C141.559 73.0316 141.513 72.9613 141.478 72.8793C141.442 72.7974 141.419 72.7154 141.419 72.6217C141.419 72.5397 141.431 72.4577 141.466 72.3757C141.501 72.2938 141.548 72.2235 141.606 72.1532C141.665 72.0947 141.735 72.0478 141.817 72.0127C141.899 71.9775 141.981 71.9658 142.075 71.9658C142.157 71.9658 142.25 71.9892 142.321 72.0244C142.403 72.0595 142.473 72.1064 142.532 72.1649L143.586 73.219L145.741 71.064C145.869 70.9469 146.033 70.8884 146.197 70.8884C146.361 70.8884 146.525 70.9586 146.642 71.0757C146.759 71.1929 146.83 71.3568 146.83 71.5208C146.841 71.6847 146.771 71.8487 146.654 71.9775L144.042 74.6009C143.914 74.7064 143.761 74.7766 143.597 74.7766Z" fill="white"/>
<path d="M124.109 68.4406H108.322C105.85 68.4406 103.848 70.4433 103.848 72.9145C103.848 75.3973 105.85 77.4 108.322 77.4H124.109C126.58 77.4 128.583 75.3973 128.583 72.9145C128.583 70.4433 126.58 68.4406 124.109 68.4406Z" fill="#FFC4C4"/>
<path d="M118.171 75.3036C117.995 75.3036 117.831 75.2334 117.714 75.1163L114.095 71.4974C113.99 71.3685 113.919 71.2163 113.931 71.0406C113.931 70.8766 114.001 70.7127 114.118 70.5956C114.235 70.4784 114.399 70.4082 114.563 70.4082C114.727 70.4082 114.891 70.4667 115.008 70.5838L118.627 74.191C118.721 74.2847 118.78 74.4019 118.803 74.5307C118.826 74.6478 118.815 74.7883 118.768 74.9055C118.721 75.0226 118.639 75.1163 118.534 75.1865C118.428 75.2568 118.299 75.3036 118.171 75.3036Z" fill="#FB9999"/>
<path d="M114.552 75.3036C114.388 75.3036 114.224 75.2334 114.096 75.1045C113.978 74.9874 113.908 74.8235 113.908 74.6478C113.908 74.4838 113.978 74.3199 114.096 74.191L117.714 70.5838C117.832 70.4667 118.007 70.3965 118.171 70.3965C118.347 70.3965 118.511 70.4667 118.628 70.5838C118.687 70.6424 118.733 70.7127 118.769 70.7947C118.804 70.8649 118.815 70.9586 118.815 71.0406C118.815 71.1226 118.804 71.2046 118.769 71.2865C118.733 71.3685 118.687 71.4388 118.628 71.4974L115.009 75.1045C114.951 75.1748 114.88 75.2217 114.81 75.2568C114.728 75.2802 114.646 75.3036 114.552 75.3036Z" fill="#FB9999"/>
<path fill-rule="evenodd" clip-rule="evenodd" d="M154.876 94.3H121.521C120.853 94.3 120.326 94.8387 120.326 95.4945C120.326 96.1621 120.853 96.7008 121.521 96.7008H154.876C155.543 96.7008 156.082 96.1621 156.082 95.4945C156.082 94.8387 155.543 94.3 154.876 94.3Z" fill="#999999"/>
<path fill-rule="evenodd" clip-rule="evenodd" d="M133.303 98.8207H121.521C120.853 98.8207 120.326 99.3594 120.326 100.015C120.326 100.683 120.853 101.222 121.521 101.222H133.303C133.959 101.222 134.497 100.683 134.497 100.015C134.497 99.3594 133.959 98.8207 133.303 98.8207Z" fill="#999999"/>
<path fill-rule="evenodd" clip-rule="evenodd" d="M152.041 108.986H136.254C133.783 108.986 131.78 110.989 131.78 113.46C131.78 115.943 133.783 117.946 136.254 117.946H152.041C154.513 117.946 156.515 115.943 156.515 113.46C156.515 110.989 154.513 108.986 152.041 108.986Z" fill="#00BE00"/>
<path d="M143.597 115.322C143.504 115.322 143.422 115.311 143.34 115.276C143.269 115.24 143.199 115.194 143.141 115.135L141.63 113.636C141.559 113.577 141.513 113.507 141.478 113.425C141.442 113.343 141.419 113.261 141.419 113.179C141.419 113.085 141.431 113.003 141.466 112.921C141.501 112.84 141.548 112.769 141.606 112.699C141.665 112.64 141.735 112.594 141.817 112.558C141.899 112.523 141.981 112.512 142.075 112.512C142.157 112.512 142.25 112.535 142.321 112.57C142.403 112.605 142.473 112.652 142.532 112.711L143.586 113.765L145.741 111.61C145.869 111.493 146.033 111.434 146.197 111.434C146.361 111.434 146.525 111.504 146.642 111.621C146.759 111.739 146.83 111.903 146.83 112.067C146.841 112.242 146.771 112.394 146.654 112.523L144.042 115.147C143.914 115.264 143.761 115.322 143.597 115.322Z" fill="white"/>
<path d="M124.109 108.986H108.322C105.85 108.986 103.848 110.989 103.848 113.46C103.848 115.943 105.85 117.946 108.322 117.946H124.109C126.58 117.946 128.583 115.943 128.583 113.46C128.583 110.989 126.58 108.986 124.109 108.986Z" fill="#FFC4C4"/>
<path d="M118.171 115.849C117.995 115.849 117.831 115.779 117.714 115.662L114.095 112.043C113.99 111.926 113.919 111.762 113.931 111.586C113.931 111.422 114.001 111.258 114.118 111.141C114.235 111.024 114.399 110.954 114.563 110.954C114.727 110.954 114.891 111.012 115.008 111.13L118.627 114.749C118.721 114.83 118.78 114.948 118.803 115.076C118.826 115.205 118.815 115.334 118.768 115.451C118.721 115.568 118.639 115.662 118.534 115.732C118.428 115.814 118.299 115.849 118.171 115.849Z" fill="#FB9999"/>
<path d="M114.552 115.849C114.388 115.849 114.224 115.779 114.096 115.662C113.978 115.533 113.908 115.369 113.908 115.205C113.908 115.03 113.978 114.866 114.096 114.749L117.714 111.13C117.832 111.012 118.007 110.942 118.171 110.942C118.347 110.942 118.511 111.012 118.628 111.13C118.687 111.188 118.733 111.258 118.769 111.34C118.804 111.422 118.815 111.504 118.815 111.586C118.815 111.668 118.804 111.75 118.769 111.832C118.733 111.914 118.687 111.985 118.628 112.043L115.009 115.662C114.951 115.721 114.88 115.767 114.81 115.803C114.728 115.826 114.646 115.849 114.552 115.849Z" fill="#FB9999"/>
<path fill-rule="evenodd" clip-rule="evenodd" d="M154.876 134.846H121.521C120.853 134.846 120.326 135.384 120.326 136.04V136.052C120.326 136.708 120.853 137.247 121.521 137.247H154.876C155.543 137.247 156.082 136.708 156.082 136.052V136.04C156.082 135.384 155.543 134.846 154.876 134.846Z" fill="#999999"/>
<path fill-rule="evenodd" clip-rule="evenodd" d="M133.303 139.366H121.521C120.853 139.366 120.326 139.905 120.326 140.561V140.573C120.326 141.229 120.853 141.767 121.521 141.767H133.303C133.959 141.767 134.497 141.229 134.497 140.573V140.561C134.497 139.905 133.959 139.366 133.303 139.366Z" fill="#999999"/>
<path fill-rule="evenodd" clip-rule="evenodd" d="M152.041 149.532H136.254C133.783 149.532 131.78 151.547 131.78 154.018C131.78 156.489 133.783 158.492 136.254 158.492H152.041C154.513 158.492 156.515 156.489 156.515 154.018C156.515 151.547 154.513 149.532 152.041 149.532Z" fill="#00BE00"/>
<path d="M143.597 155.868C143.504 155.868 143.422 155.856 143.34 155.821C143.269 155.786 143.199 155.739 143.141 155.681L141.63 154.182C141.559 154.123 141.513 154.053 141.478 153.971C141.442 153.889 141.419 153.807 141.419 153.725C141.419 153.631 141.431 153.549 141.466 153.467C141.501 153.385 141.548 153.315 141.606 153.256C141.665 153.186 141.735 153.139 141.817 153.104C141.899 153.069 141.981 153.057 142.075 153.057C142.157 153.057 142.25 153.081 142.321 153.116C142.403 153.151 142.473 153.198 142.532 153.268L143.586 154.31L145.741 152.156C145.869 152.038 146.033 151.98 146.197 151.98C146.361 151.98 146.525 152.05 146.642 152.167C146.759 152.284 146.83 152.448 146.83 152.612C146.841 152.788 146.771 152.94 146.654 153.069L144.042 155.692C143.914 155.81 143.761 155.868 143.597 155.868Z" fill="white"/>
<path d="M124.109 149.532H108.322C105.85 149.532 103.848 151.547 103.848 154.018C103.848 156.489 105.85 158.492 108.322 158.492H124.109C126.58 158.492 128.583 156.489 128.583 154.018C128.583 151.547 126.58 149.532 124.109 149.532Z" fill="#FFC4C4"/>
<path d="M118.171 156.395C117.995 156.395 117.831 156.325 117.714 156.208L114.095 152.589C113.99 152.472 113.919 152.308 113.931 152.132C113.931 151.968 114.001 151.816 114.118 151.687C114.235 151.57 114.399 151.5 114.563 151.5C114.727 151.5 114.891 151.558 115.008 151.675L118.627 155.294C118.721 155.376 118.78 155.493 118.803 155.622C118.826 155.751 118.815 155.88 118.768 155.997C118.721 156.114 118.639 156.219 118.534 156.29C118.428 156.36 118.299 156.395 118.171 156.395Z" fill="#FB9999"/>
<path d="M114.552 156.395C114.388 156.395 114.224 156.325 114.096 156.208C113.978 156.079 113.908 155.915 113.908 155.751C113.908 155.575 113.978 155.411 114.096 155.294L117.714 151.675C117.832 151.558 118.007 151.488 118.171 151.488C118.347 151.488 118.511 151.558 118.628 151.675C118.687 151.734 118.733 151.804 118.769 151.886C118.804 151.968 118.815 152.05 118.815 152.132C118.815 152.214 118.804 152.308 118.769 152.378C118.733 152.46 118.687 152.53 118.628 152.589L115.009 156.208C114.951 156.266 114.88 156.313 114.81 156.348C114.728 156.383 114.646 156.395 114.552 156.395Z" fill="#FB9999"/>
<path fill-rule="evenodd" clip-rule="evenodd" d="M112.983 54.6677C113.205 54.9371 113.334 55.2064 113.393 55.5578C113.451 55.9443 113.451 56.4479 113.404 57.1857C113.404 57.3028 113.463 57.2091 113.568 57.2443H113.592C113.615 57.256 113.65 57.2794 113.662 57.3263C113.779 57.5722 113.709 58.2046 113.557 58.4272C113.51 58.4974 113.44 58.5443 113.322 58.5677C113.217 58.5794 113.17 58.5091 113.147 58.6145C113.053 59.0479 112.983 59.3524 112.866 59.5983C112.772 59.8443 112.62 60.0434 112.385 60.3127C112.339 60.3596 112.304 60.4181 112.315 60.4884L112.304 60.6172C112.292 60.9452 112.268 61.4839 112.585 61.7767C112.608 61.7884 112.62 61.8001 112.643 61.8118C112.983 61.9992 113.744 62.3037 114.341 62.5497C114.646 62.6668 114.915 62.7722 115.032 62.8307C115.349 62.9713 115.431 63.1352 115.618 63.3343C115.747 63.4632 115.852 63.6154 115.934 63.7794C116.063 63.6506 116.192 63.5217 116.309 63.3929C117.316 62.1749 117.937 60.6055 117.937 58.8956C117.937 54.9956 114.786 51.8335 110.886 51.8218C106.998 51.8335 103.836 54.9956 103.848 58.8956C103.848 60.6055 104.457 62.1749 105.476 63.3929C105.593 63.5217 105.71 63.6506 105.85 63.7794C105.921 63.6154 106.026 63.4632 106.155 63.3343C106.342 63.1352 106.436 62.9713 106.74 62.8307C106.858 62.7722 107.127 62.6668 107.431 62.5497C108.029 62.3037 108.802 61.9992 109.141 61.8118C109.153 61.8001 109.176 61.7884 109.188 61.7767C109.504 61.4839 109.481 60.9452 109.469 60.6172V60.4884C109.469 60.4181 109.446 60.3596 109.399 60.3127C109.153 60.0434 109.013 59.8443 108.907 59.5983C108.802 59.3524 108.72 59.0479 108.626 58.6145C108.603 58.5091 108.556 58.5794 108.45 58.5677C108.345 58.5443 108.275 58.4974 108.216 58.4272C108.064 58.2046 108.005 57.5722 108.111 57.3263C108.134 57.2794 108.158 57.256 108.193 57.2443H108.204C108.322 57.2091 108.368 57.3028 108.368 57.1857C108.333 56.4479 108.322 55.9443 108.392 55.5578C108.45 55.2064 108.567 54.9371 108.79 54.6677C109.657 53.5902 112.128 53.5902 112.983 54.6677Z" fill="#00BE00"/>
<path fill-rule="evenodd" clip-rule="evenodd" d="M112.983 94.9324C113.205 95.2135 113.334 95.4711 113.393 95.8342C113.451 96.2207 113.451 96.7243 113.404 97.4621C113.404 97.5792 113.463 97.4738 113.568 97.5207H113.592C113.615 97.5324 113.65 97.5558 113.662 97.6026C113.779 97.8486 113.709 98.481 113.557 98.7035C113.51 98.7621 113.44 98.8206 113.322 98.8324C113.217 98.8441 113.17 98.7855 113.147 98.8909C113.053 99.3242 112.983 99.617 112.866 99.8747C112.772 100.109 112.62 100.32 112.385 100.577C112.339 100.624 112.304 100.695 112.315 100.765L112.304 100.894C112.292 101.21 112.268 101.76 112.585 102.041C112.608 102.065 112.62 102.076 112.643 102.076C112.983 102.276 113.744 102.58 114.341 102.814C114.646 102.943 114.915 103.049 115.032 103.095C115.349 103.248 115.431 103.412 115.618 103.599C115.747 103.74 115.852 103.892 115.934 104.056C116.063 103.927 116.192 103.798 116.309 103.658C117.316 102.44 117.937 100.87 117.937 99.1603C117.937 95.2603 114.786 92.0982 110.886 92.0982C106.998 92.0982 103.836 95.2603 103.848 99.1603C103.848 100.87 104.457 102.44 105.476 103.658C105.593 103.798 105.71 103.927 105.85 104.056C105.921 103.892 106.026 103.74 106.155 103.599C106.342 103.412 106.436 103.248 106.74 103.095C106.858 103.049 107.127 102.943 107.431 102.814C108.029 102.58 108.802 102.276 109.141 102.076C109.153 102.076 109.176 102.065 109.188 102.041C109.504 101.76 109.481 101.21 109.469 100.894V100.765C109.469 100.695 109.446 100.624 109.399 100.577C109.153 100.32 109.013 100.109 108.907 99.8747C108.802 99.617 108.72 99.3242 108.626 98.8909C108.603 98.7855 108.556 98.8441 108.45 98.8324C108.345 98.8206 108.275 98.7621 108.216 98.7035C108.064 98.481 108.005 97.8486 108.111 97.6026C108.134 97.5558 108.158 97.5324 108.193 97.5207H108.204C108.322 97.4738 108.368 97.5792 108.368 97.4621C108.333 96.7243 108.322 96.2207 108.392 95.8342C108.45 95.4711 108.567 95.2135 108.79 94.9324C109.657 93.8549 112.128 93.8549 112.983 94.9324Z" fill="#00BE00"/>
<path fill-rule="evenodd" clip-rule="evenodd" d="M112.983 135.209C113.205 135.478 113.334 135.748 113.393 136.099C113.451 136.485 113.451 136.989 113.404 137.727C113.404 137.844 113.463 137.75 113.568 137.785L113.592 137.797C113.615 137.797 113.65 137.82 113.662 137.867C113.779 138.113 113.709 138.746 113.557 138.968C113.51 139.038 113.44 139.085 113.322 139.109C113.217 139.12 113.17 139.05 113.147 139.167C113.053 139.589 112.983 139.893 112.866 140.139C112.772 140.385 112.62 140.584 112.385 140.854C112.339 140.901 112.304 140.959 112.315 141.029L112.304 141.158C112.292 141.486 112.268 142.025 112.585 142.318C112.608 142.329 112.62 142.341 112.643 142.353C112.983 142.54 113.744 142.856 114.341 143.091C114.646 143.22 114.915 143.313 115.032 143.372C115.349 143.512 115.431 143.676 115.618 143.875C115.747 144.004 115.852 144.156 115.934 144.32C116.063 144.192 116.192 144.063 116.309 143.934C117.316 142.716 117.937 141.147 117.937 139.437C117.937 135.537 114.786 132.375 110.886 132.363C106.998 132.375 103.836 135.537 103.848 139.437C103.848 141.147 104.457 142.716 105.476 143.934C105.593 144.063 105.71 144.192 105.85 144.32C105.921 144.156 106.026 144.004 106.155 143.875C106.342 143.676 106.436 143.512 106.74 143.372C106.858 143.313 107.127 143.22 107.431 143.091C108.029 142.856 108.802 142.54 109.141 142.353C109.153 142.341 109.176 142.329 109.188 142.318C109.504 142.025 109.481 141.486 109.469 141.158V141.029C109.469 140.959 109.446 140.901 109.399 140.854C109.153 140.584 109.013 140.385 108.907 140.139C108.802 139.893 108.72 139.589 108.626 139.167C108.603 139.05 108.556 139.12 108.45 139.109C108.345 139.085 108.275 139.038 108.216 138.968C108.064 138.746 108.005 138.113 108.111 137.867C108.134 137.82 108.158 137.797 108.193 137.797L108.204 137.785C108.322 137.75 108.368 137.844 108.368 137.727C108.333 136.989 108.322 136.485 108.392 136.099C108.45 135.748 108.567 135.478 108.79 135.209C109.657 134.131 112.128 134.131 112.983 135.209Z" fill="#00BE00"/>
<path d="M176.846 90.4937C176.846 90.4937 188.499 94.136 191.825 98.8558C194.718 102.978 189.987 108.202 185.021 113.94C180.055 119.679 176.87 124.305 173.825 124.024C170.791 123.755 170.475 116.857 176.835 104.267L176.846 90.4937Z" fill="#F2AB83"/>
<path d="M176.811 123.72C176.811 123.72 185.828 128.65 187.41 132.375C189.002 136.111 185.84 139.847 182.292 143.091C178.743 146.347 173.028 149.708 171.318 149.591C169.608 149.474 168.882 143.7 171.927 138.886C174.972 134.061 176.799 131.051 176.799 131.051L176.811 123.72Z" fill="#F2AB83"/>
<path d="M182.292 143.091C182.292 143.091 185.583 147.307 184.974 150.914C184.365 154.533 174.621 163.914 172.184 163.914C169.737 163.914 171.084 156.571 172.911 152.964C173.918 150.926 175.183 149.017 176.693 147.307L182.292 143.091Z" fill="#F2AB83"/>
<path d="M32.8984 163.106C32.8984 163.106 38.4146 144.754 48.4047 126.366C54.3191 115.486 60.7839 103.646 66.3821 93.4918C74.1352 79.4496 89.5243 59.7623 90.2387 59.3055C93.4009 57.2326 96.118 64.8217 94.7711 74.3784C93.2369 85.0243 85.5541 98.5162 85.191 112.804C84.5586 137.364 90.2387 167.65 60.2452 174.302C46.1912 177.394 32.8984 163.106 32.8984 163.106Z" fill="#F2AB83"/>
<path d="M179.411 119.433L174.879 116.611C174.879 116.611 171.963 119.937 173.579 122.244C175.429 124.879 179.411 119.433 179.411 119.433Z" fill="#FFEADB"/>
<path d="M177.373 145.761L173.485 142.107C173.485 142.107 169.948 144.801 171.084 147.377C172.373 150.317 177.373 145.761 177.373 145.761Z" fill="#FFEADB"/>
<path d="M176.354 160.904L173.403 158.292C173.403 158.292 170.931 161.548 171.74 162.556C172.934 164.055 176.354 160.904 176.354 160.904Z" fill="#FFEADB"/>
<path d="M176.811 104.267C176.811 104.267 178.731 100.074 179.832 98.1648L176.822 96.9936L176.811 104.267Z" fill="#CC6D50"/>
<path d="M182.292 143.091L176.694 147.307C176.694 147.307 174.328 150.001 173.895 150.961L184.669 147.635L182.292 143.091Z" fill="#CC6D50"/>
<path d="M83.9492 67.246C84.4411 67.7848 85.5537 68.3352 86.9942 67.5974C89.1843 66.4731 91.2456 63.0767 91.2456 63.0767C91.2456 63.0767 91.187 61.1325 89.7231 59.8443C87.7789 62.21 85.8582 64.6929 83.9492 67.246Z" fill="#FFEADB"/>
<path fill-rule="evenodd" clip-rule="evenodd" d="M25.1332 175.146C23.9855 178.015 20.9053 182.559 34.3503 194.997C47.7953 207.446 82.5555 216.371 82.5555 216.371L0 216.441C10.236 204.085 15.0963 189.504 19.5936 176.317C21.4558 170.859 24.2666 171.316 26.8314 171.046L25.1332 175.146Z" fill="#E6E6E6"/>
</svg>
