<svg width="200" height="198" viewBox="0 0 200 198" fill="none" xmlns="http://www.w3.org/2000/svg">
<g clip-path="url(#clip0_1220_32470)">
<path fill-rule="evenodd" clip-rule="evenodd" d="M56.9066 62.3226H6.17163C5.27163 62.3226 4.38163 62.1226 3.56663 61.7426C2.74663 61.3626 2.02663 60.8076 1.44663 60.1176C0.866626 59.4276 0.446626 58.6176 0.211626 57.7476C-0.0183736 56.8776 -0.0583736 55.9676 0.0966264 55.0826L8.45162 7.52258C8.82162 5.42258 9.92163 3.51758 11.5566 2.14258C13.1916 0.772578 15.2566 0.0175781 17.3916 0.0175781H68.1316C69.0316 0.0175781 69.9216 0.217578 70.7366 0.597578C71.5566 0.977578 72.2766 1.53258 72.8566 2.22258C73.4366 2.91258 73.8566 3.71758 74.0916 4.58758C74.3266 5.45758 74.3666 6.36758 74.2066 7.25758L65.8516 54.8126C65.4816 56.9176 64.3816 58.8226 62.7466 60.1976C61.1116 61.5676 59.0416 62.3226 56.9066 62.3226Z" fill="#00BE00"/>
<path d="M58.8203 22.0176H17.0903C16.6753 22.0176 16.2653 21.9226 15.8853 21.7426C15.5103 21.5626 15.1803 21.3026 14.9203 20.9776C14.6553 20.6526 14.4703 20.2726 14.3753 19.8676C14.2803 19.4626 14.2753 19.0426 14.3653 18.6326C14.8953 16.1876 17.3103 14.2026 19.7553 14.2026H59.5453C61.9953 14.2026 63.5453 16.1876 63.0153 18.6326C62.8103 19.5926 62.2803 20.4526 61.5203 21.0676C60.7553 21.6826 59.8003 22.0176 58.8203 22.0176Z" fill="#FEFEFE"/>
<path d="M53.7099 24.6776C55.5399 23.0376 55.9499 20.5176 54.6299 19.0476C53.3099 17.5776 50.7599 17.7176 48.9349 19.3526C47.1099 20.9926 46.6999 23.5126 48.0199 24.9826C49.3349 26.4476 51.8849 26.3126 53.7099 24.6776Z" fill="#2F2C2D"/>
<path d="M52.0682 22.8426C52.6382 22.3326 52.7682 21.5476 52.3582 21.0926C51.9482 20.6326 51.1532 20.6776 50.5832 21.1876C50.0182 21.6976 49.8882 22.4826 50.2982 22.9376C50.7082 23.3976 51.5032 23.3526 52.0682 22.8426Z" fill="#93C88D"/>
<path d="M25.6407 24.6778C27.4657 23.0428 27.8757 20.5228 26.5607 19.0528C25.2407 17.5828 22.6907 17.7178 20.8657 19.3578C19.0407 20.9928 18.6307 23.5128 19.9457 24.9828C21.2657 26.4528 23.8157 26.3178 25.6407 24.6778Z" fill="#2F2C2D"/>
<path d="M23.9954 22.8475C24.5654 22.3325 24.6904 21.5525 24.2804 21.0925C23.8704 20.6375 23.0804 20.6775 22.5104 21.1875C21.9404 21.7025 21.8154 22.4825 22.2254 22.9425C22.6354 23.3975 23.4254 23.3575 23.9954 22.8475Z" fill="#93C88D"/>
<path d="M37.422 22.0175H36.707L39.007 13.2075L39.677 13.3825L37.422 22.0175Z" fill="#2F2C2D"/>
<path d="M53.3759 14.2026H27.3359L29.7009 11.1326C31.0659 9.35256 33.1809 8.24756 35.2109 8.24756H48.1009C50.1309 8.24756 51.7659 9.35256 52.3759 11.1326L53.3759 14.2026Z" fill="#2F2C2D"/>
<path d="M57.5874 38.6276H14.5124C14.3474 38.6376 14.1774 38.6026 14.0274 38.5326C13.8724 38.4626 13.7374 38.3576 13.6324 38.2276C13.5274 38.1026 13.4524 37.9476 13.4124 37.7826C13.3774 37.6226 13.3774 37.4526 13.4174 37.2876C13.4924 36.9226 13.6874 36.5876 13.9774 36.3476C14.2624 36.1026 14.6224 35.9676 14.9974 35.9526H58.0824C58.2474 35.9426 58.4174 35.9726 58.5724 36.0376C58.7274 36.1076 58.8624 36.2126 58.9724 36.3426C59.0774 36.4726 59.1524 36.6226 59.1874 36.7876C59.2274 36.9526 59.2224 37.1276 59.1774 37.2876C59.1074 37.6576 58.9074 37.9926 58.6174 38.2376C58.3324 38.4826 57.9674 38.6176 57.5874 38.6276Z" fill="#78BC6F"/>
<path d="M37.1283 44.3127H13.4933C13.3233 44.3177 13.1583 44.2827 13.0033 44.2177C12.8533 44.1477 12.7183 44.0427 12.6133 43.9127C12.5033 43.7827 12.4283 43.6327 12.3933 43.4677C12.3533 43.3077 12.3533 43.1377 12.3933 42.9727C12.4683 42.6077 12.6633 42.2727 12.9483 42.0327C13.2383 41.7877 13.5983 41.6477 13.9733 41.6327H37.6083C37.7783 41.6227 37.9483 41.6527 38.1033 41.7227C38.2583 41.7877 38.3933 41.8927 38.5033 42.0227C38.6083 42.1527 38.6833 42.3077 38.7183 42.4727C38.7533 42.6377 38.7483 42.8127 38.7083 42.9727C38.6333 43.3427 38.4383 43.6727 38.1483 43.9177C37.8633 44.1577 37.5033 44.2977 37.1283 44.3127Z" fill="#93C88D"/>
<path d="M44.8627 49.9924H12.4577C12.2927 50.0024 12.1277 49.9674 11.9727 49.8974C11.8227 49.8324 11.6827 49.7274 11.5777 49.5974C11.4727 49.4674 11.3977 49.3174 11.3577 49.1524C11.3227 48.9874 11.3227 48.8174 11.3627 48.6524C11.4377 48.2874 11.6327 47.9574 11.9227 47.7124C12.2077 47.4724 12.5677 47.3324 12.9427 47.3174H45.3427C45.5077 47.3124 45.6727 47.3474 45.8277 47.4124C45.9777 47.4824 46.1127 47.5874 46.2227 47.7124C46.3277 47.8424 46.4027 47.9974 46.4377 48.1574C46.4777 48.3224 46.4777 48.4924 46.4377 48.6524C46.3627 49.0224 46.1677 49.3524 45.8827 49.5974C45.5977 49.8424 45.2377 49.9824 44.8627 49.9924Z" fill="#78BC6F"/>
<path d="M57.9862 112.938H23.3862C22.7712 112.938 22.1662 112.803 21.6062 112.543C21.0512 112.288 20.5562 111.908 20.1612 111.438C19.7662 110.963 19.4762 110.413 19.3212 109.823C19.1612 109.228 19.1312 108.608 19.2412 108.003L24.9412 75.5726C25.1912 74.1376 25.9412 72.8376 27.0562 71.9026C28.1712 70.9626 29.5862 70.4526 31.0412 70.4526H65.6412C66.2562 70.4526 66.8662 70.5876 67.4212 70.8476C67.9812 71.1076 68.4712 71.4826 68.8662 71.9526C69.2612 72.4226 69.5512 72.9776 69.7112 73.5676C69.8662 74.1626 69.8962 74.7826 69.7912 75.3876L64.0862 107.818C63.8362 109.253 63.0862 110.553 61.9712 111.488C60.8562 112.428 59.4462 112.938 57.9862 112.938Z" fill="#CEE5CC"/>
<path d="M57.7324 85.7128H31.2674C31.0074 85.7128 30.7474 85.6528 30.5124 85.5378C30.2724 85.4228 30.0674 85.2528 29.9024 85.0478C29.7374 84.8428 29.6224 84.6028 29.5574 84.3478C29.4974 84.0928 29.4974 83.8278 29.5524 83.5678C29.7424 82.7928 30.1774 82.0978 30.7924 81.5928C31.4124 81.0828 32.1774 80.7928 32.9724 80.7578H58.2074C59.7574 80.7578 60.7424 82.0178 60.4074 83.5678C60.2724 84.1778 59.9374 84.7228 59.4524 85.1128C58.9624 85.5028 58.3574 85.7178 57.7324 85.7128Z" fill="#FEFEFE"/>
<path fill-rule="evenodd" clip-rule="evenodd" d="M54.4977 87.3978C55.6527 86.3578 55.9127 84.7628 55.0777 83.8328C54.2427 82.8978 52.6277 82.9828 51.4677 84.0228C50.3127 85.0578 50.0527 86.6578 50.8877 87.5928C51.7227 88.5228 53.3427 88.4378 54.4977 87.3978Z" fill="#00BE00"/>
<path d="M53.4517 86.2376C53.8117 85.9126 53.8967 85.4126 53.6367 85.1226C53.3767 84.8326 52.8717 84.8626 52.5117 85.1876C52.1517 85.5076 52.0667 86.0076 52.3267 86.2976C52.5867 86.5876 53.0917 86.5576 53.4517 86.2376Z" fill="#FEFEFE"/>
<path fill-rule="evenodd" clip-rule="evenodd" d="M36.6966 87.3976C37.8516 86.3626 38.1116 84.7626 37.2766 83.8326C36.4416 82.8976 34.8216 82.9826 33.6666 84.0226C32.5066 85.0626 32.2466 86.6576 33.0866 87.5926C33.9216 88.5226 35.5366 88.4376 36.6966 87.3976Z" fill="#00BE00"/>
<path d="M35.6527 86.2378C36.0127 85.9128 36.0927 85.4128 35.8327 85.1228C35.5727 84.8378 35.0727 84.8628 34.7077 85.1878C34.3477 85.5078 34.2677 86.0078 34.5277 86.2978C34.7877 86.5878 35.2927 86.5578 35.6527 86.2378Z" fill="#FEFEFE"/>
<path fill-rule="evenodd" clip-rule="evenodd" d="M44.1452 85.7127H43.7852L45.2102 80.1377L45.5502 80.2227L44.1452 85.7127Z" fill="#00BE00"/>
<path d="M54.2806 80.7575H37.7656L39.2606 78.8125C39.6706 78.2625 40.1956 77.8125 40.8006 77.4975C41.4106 77.1825 42.0806 77.0025 42.7606 76.9825H50.9256C51.5106 76.9525 52.0906 77.1175 52.5806 77.4475C53.0656 77.7775 53.4306 78.2575 53.6256 78.8125L54.2806 80.7575Z" fill="#00BE00"/>
<path d="M59.547 96.1325H29.297C29.177 96.1375 29.057 96.1175 28.947 96.0725C28.837 96.0225 28.742 95.9525 28.667 95.8625C28.587 95.7675 28.537 95.6625 28.507 95.5475C28.482 95.4275 28.482 95.3075 28.507 95.1925C28.562 94.9325 28.702 94.7025 28.902 94.5275C29.102 94.3575 29.357 94.2625 29.617 94.2525H59.872C59.992 94.2425 60.112 94.2625 60.217 94.3125C60.327 94.3575 60.427 94.4325 60.502 94.5225C60.577 94.6125 60.632 94.7225 60.662 94.8375C60.687 94.9575 60.687 95.0775 60.657 95.1925C60.607 95.4525 60.467 95.6825 60.267 95.8525C60.067 96.0225 59.812 96.1225 59.547 96.1325Z" fill="#FEFEFE"/>
<path d="M45.1783 100.122H28.5783C28.4583 100.127 28.3383 100.107 28.2283 100.062C28.1233 100.012 28.0233 99.9424 27.9483 99.8524C27.8733 99.7574 27.8183 99.6524 27.7883 99.5374C27.7633 99.4224 27.7633 99.2974 27.7883 99.1824C27.8433 98.9274 27.9833 98.6924 28.1833 98.5224C28.3833 98.3524 28.6383 98.2524 28.8983 98.2424H45.4983C45.6183 98.2374 45.7383 98.2575 45.8483 98.3025C45.9583 98.3525 46.0533 98.4225 46.1283 98.5174C46.2083 98.6074 46.2633 98.7175 46.2883 98.8325C46.3183 98.9475 46.3183 99.0674 46.2883 99.1824C46.2333 99.4424 46.0933 99.6724 45.8933 99.8424C45.6933 100.012 45.4383 100.112 45.1783 100.122Z" fill="#FEFEFE"/>
<path d="M50.6133 104.112H27.8583C27.7433 104.122 27.6233 104.102 27.5133 104.052C27.4033 104.007 27.3083 103.932 27.2283 103.842C27.1533 103.752 27.0983 103.642 27.0733 103.527C27.0433 103.412 27.0433 103.287 27.0733 103.172C27.1283 102.917 27.2633 102.682 27.4683 102.512C27.6683 102.342 27.9183 102.247 28.1833 102.237H50.9333C51.0533 102.227 51.1733 102.247 51.2833 102.297C51.3933 102.342 51.4883 102.412 51.5633 102.507C51.6433 102.597 51.6933 102.702 51.7233 102.822C51.7483 102.937 51.7483 103.057 51.7233 103.172C51.6683 103.432 51.5283 103.662 51.3283 103.837C51.1283 104.007 50.8733 104.102 50.6133 104.112Z" fill="#FEFEFE"/>
<path d="M112.011 65.4673H77.5509C76.9359 65.4673 76.3309 65.3373 75.7759 65.0773C75.2209 64.8173 74.7309 64.4423 74.3359 63.9723C73.9459 63.5023 73.6559 62.9523 73.5009 62.3623C73.3409 61.7723 73.3109 61.1523 73.4209 60.5523L79.0959 28.2523C79.3509 26.8223 80.0959 25.5273 81.2059 24.5973C82.3159 23.6623 83.7209 23.1523 85.1709 23.1523H119.636C120.251 23.1523 120.851 23.2873 121.406 23.5473C121.961 23.8023 122.456 24.1823 122.846 24.6523C123.241 25.1173 123.526 25.6673 123.686 26.2573C123.846 26.8523 123.871 27.4673 123.766 28.0723L118.086 60.3723C117.836 61.7973 117.091 63.0923 115.981 64.0273C114.866 64.9573 113.466 65.4673 112.011 65.4673Z" fill="#CEE5CC"/>
<path d="M111.758 38.3525H85.403C85.138 38.3525 84.883 38.2925 84.648 38.1775C84.408 38.0625 84.203 37.8975 84.038 37.6925C83.878 37.4875 83.758 37.2475 83.698 36.9925C83.638 36.7375 83.638 36.4725 83.693 36.2175C83.878 35.4425 84.313 34.7525 84.928 34.2475C85.543 33.7425 86.308 33.4525 87.098 33.4175H112.228C113.773 33.4175 114.758 34.6725 114.423 36.2175C114.293 36.8225 113.953 37.3675 113.468 37.7575C112.983 38.1475 112.383 38.3575 111.758 38.3525Z" fill="#FEFEFE"/>
<path fill-rule="evenodd" clip-rule="evenodd" d="M108.538 40.0327C109.688 38.9977 109.948 37.4077 109.118 36.4777C108.283 35.5477 106.673 35.6377 105.518 36.6677C104.368 37.7027 104.108 39.2927 104.943 40.2227C105.773 41.1527 107.383 41.0677 108.538 40.0327Z" fill="#00BE00"/>
<path d="M107.495 38.8724C107.855 38.5524 107.935 38.0524 107.675 37.7674C107.415 37.4774 106.915 37.5074 106.555 37.8274C106.195 38.1524 106.115 38.6474 106.375 38.9374C106.635 39.2224 107.135 39.1924 107.495 38.8724Z" fill="#FEFEFE"/>
<path fill-rule="evenodd" clip-rule="evenodd" d="M90.8072 40.0327C91.9573 38.9977 92.2172 37.4077 91.3822 36.4777C90.5522 35.5527 88.9422 35.6377 87.7872 36.6727C86.6372 37.7027 86.3772 39.2977 87.2122 40.2227C88.0422 41.1527 89.6522 41.0677 90.8072 40.0327Z" fill="#00BE00"/>
<path d="M89.7648 38.8724C90.1248 38.5524 90.2049 38.0574 89.9448 37.7674C89.6848 37.4774 89.1848 37.5074 88.8248 37.8274C88.4648 38.1524 88.3848 38.6474 88.6448 38.9374C88.9048 39.2224 89.4048 39.1974 89.7648 38.8724Z" fill="#FEFEFE"/>
<path d="M98.2272 38.3527H97.8672L99.2872 32.8027L99.6272 32.8877L98.2272 38.3527Z" fill="#38AA3F"/>
<path fill-rule="evenodd" clip-rule="evenodd" d="M108.316 33.4178H91.8711L93.3611 31.4778C93.7711 30.9328 94.2911 30.4878 94.8961 30.1728C95.5011 29.8578 96.1661 29.6778 96.8461 29.6578H104.976C105.561 29.6278 106.141 29.7928 106.626 30.1178C107.111 30.4478 107.476 30.9278 107.666 31.4778L108.316 33.4178Z" fill="#00BE00"/>
<path d="M113.566 48.7327H83.4364C83.3164 48.7377 83.1964 48.7177 83.0914 48.6677C82.9814 48.6227 82.8864 48.5527 82.8064 48.4577C82.7314 48.3677 82.6764 48.2627 82.6514 48.1477C82.6214 48.0277 82.6214 47.9077 82.6514 47.7927C82.7064 47.5377 82.8414 47.3027 83.0414 47.1377C83.2414 46.9627 83.4964 46.8677 83.7564 46.8577H113.886C114.006 46.8527 114.126 46.8727 114.236 46.9177C114.341 46.9627 114.441 47.0377 114.516 47.1277C114.591 47.2177 114.646 47.3277 114.671 47.4427C114.701 47.5577 114.701 47.6777 114.671 47.7927C114.621 48.0527 114.481 48.2827 114.281 48.4527C114.081 48.6227 113.826 48.7227 113.566 48.7327Z" fill="#FEFEFE"/>
<path d="M99.2522 52.7028H82.7172C82.6022 52.7128 82.4822 52.6878 82.3722 52.6428C82.2672 52.5978 82.1672 52.5228 82.0922 52.4328C82.0172 52.3428 81.9622 52.2378 81.9372 52.1228C81.9072 52.0078 81.9072 51.8878 81.9322 51.7728C81.9872 51.5128 82.1272 51.2828 82.3272 51.1128C82.5272 50.9428 82.7772 50.8428 83.0422 50.8328H99.5772C99.6922 50.8278 99.8122 50.8478 99.9222 50.8928C100.027 50.9428 100.127 51.0128 100.202 51.1028C100.277 51.1978 100.332 51.3028 100.357 51.4178C100.387 51.5328 100.387 51.6578 100.357 51.7728C100.302 52.0278 100.167 52.2578 99.9672 52.4278C99.7672 52.5978 99.5122 52.6928 99.2522 52.7028Z" fill="#FEFEFE"/>
<path d="M104.667 56.6826H82.0074C81.8874 56.6876 81.7674 56.6676 81.6574 56.6176C81.5524 56.5726 81.4524 56.5026 81.3774 56.4076C81.3024 56.3176 81.2474 56.2126 81.2174 56.0926C81.1924 55.9776 81.1924 55.8576 81.2224 55.7426C81.2724 55.4876 81.4124 55.2576 81.6124 55.0876C81.8124 54.9176 82.0624 54.8226 82.3274 54.8126H104.987C105.102 54.8026 105.222 54.8226 105.332 54.8676C105.442 54.9176 105.537 54.9876 105.612 55.0776C105.692 55.1676 105.747 55.2776 105.772 55.3926C105.797 55.5076 105.797 55.6276 105.772 55.7426C105.717 56.0026 105.577 56.2326 105.377 56.4026C105.177 56.5726 104.927 56.6726 104.667 56.6826Z" fill="#FEFEFE"/>
<path d="M129.947 90.4825C121.557 81.3025 133.242 74.4725 131.742 66.5025C130.297 58.8325 132.812 48.7475 142.132 41.2675C151.457 33.7875 166.777 36.6975 172.292 44.7575C177.167 51.8725 175.407 57.6925 177.872 60.8675C182.742 67.1375 180.087 71.0125 180.087 74.8675C180.092 78.7175 188.412 84.4075 181.192 90.7875L129.947 90.4825Z" fill="#4B4042"/>
<path d="M128.607 105.258C128.607 105.258 116.057 110.598 107.382 142.808C103.112 158.658 113.597 179.963 113.597 179.963C113.597 179.963 122.302 174.418 127.077 165.698C137.322 146.988 128.607 105.258 128.607 105.258Z" fill="#00BE00"/>
<path d="M97.5614 84.1577L99.7264 95.7877L98.7364 95.9777L96.5664 84.3527L97.5614 84.1577Z" fill="#00BE00"/>
<path d="M105.715 88.5176L106.71 88.6776L105.725 94.9826L104.73 94.8226L105.715 88.5176Z" fill="#00BE00"/>
<path d="M111.88 93.4825L112.585 94.2125L110.33 96.4575L109.625 95.7225L111.88 93.4825Z" fill="#00BE00"/>
<path d="M111.907 99.2827L116.737 99.3977L116.717 100.423L111.887 100.308L111.907 99.2827Z" fill="#00BE00"/>
<path d="M89.225 94.7227L93.645 97.1227L93.175 98.0327L88.75 95.6277L89.225 94.7227Z" fill="#00BE00"/>
<path d="M88.75 102.698H92.25V103.728H88.75V102.698Z" fill="#00BE00"/>
<path d="M165.006 71.9326C165.006 71.9326 163.081 91.4726 165.946 94.6126C168.811 97.7576 181.836 100.943 183.701 107.583C186.581 117.823 135.161 123.343 130.591 112.033C128.826 107.663 141.031 101.828 144.361 94.5876C146.391 90.1776 143.976 75.9576 143.976 75.9576L165.006 71.9326Z" fill="#9D6553"/>
<path d="M152.977 91.4627C149.092 92.0927 146.622 90.7477 145.122 89.2327C144.892 84.0676 143.977 78.6876 143.977 78.6876L145.082 78.4776L164.947 75.3276C164.882 76.0276 164.782 77.2426 164.682 78.7526C162.717 83.2677 158.712 90.5327 152.977 91.4627Z" fill="#2F2C2D"/>
<path d="M141.006 99.2825C141.006 99.2825 142.496 108.853 151.856 108.668C162.936 108.453 168.581 96.4575 168.581 96.4575C168.581 96.4575 189.046 99.7275 194.536 105.248L198.251 110.913L192.656 131.498C189.186 147.023 186.736 170.993 185.801 185.938C183.391 187.402 182.846 187.562 180.281 188.717C162.651 196.652 141.741 197.627 122.871 197.732C123.456 188.212 122.016 151.743 120.271 146.268C118.916 142.018 128.606 105.258 128.606 105.258L141.006 99.2825Z" fill="#00BE00"/>
<path d="M134.959 152.222H134.594C134.594 155.147 133.409 157.792 131.494 159.712C129.574 161.627 126.929 162.812 124.004 162.812C121.079 162.812 118.434 161.627 116.519 159.712C114.604 157.792 113.419 155.147 113.419 152.222C113.419 149.297 114.604 146.652 116.519 144.737C118.434 142.822 121.079 141.637 124.004 141.637C126.929 141.637 129.574 142.822 131.494 144.737C133.409 146.652 134.594 149.297 134.594 152.222H134.959H135.329C135.329 145.972 130.259 140.902 124.004 140.902C117.754 140.902 112.684 145.972 112.684 152.222C112.684 158.477 117.754 163.547 124.004 163.547C130.259 163.547 135.329 158.477 135.329 152.222H134.959Z" fill="#66D866"/>
<path fill-rule="evenodd" clip-rule="evenodd" d="M110.539 132.492C110.419 132.502 110.314 132.412 110.309 132.292C110.299 132.172 110.389 132.067 110.509 132.057C110.629 132.052 110.734 132.142 110.744 132.262C110.749 132.382 110.659 132.487 110.539 132.492Z" fill="#FEFEFE"/>
<path d="M167.29 67.2173C167.29 67.2173 168.37 66.4073 169.57 64.8773C170.615 63.5423 170.75 62.5823 171.855 62.9723C174.655 63.9573 174.675 74.0923 166.735 74.7373C166.155 77.9173 161.525 88.0473 152.395 88.5073C143.26 88.9623 138.855 75.9773 138.49 69.0423C138.355 66.4523 138.385 64.0223 140.115 59.7723C141.985 55.1573 147.78 53.8673 151.855 51.5473C156.37 48.9723 159.095 45.6123 159.095 45.6123C159.095 45.6123 160.58 52.5873 163.73 55.7373C168.785 60.8023 167.29 67.2173 167.29 67.2173Z" fill="#9D6553"/>
<path d="M154.785 59.2925C156.025 59.3125 156.62 58.8575 159.285 59.1625C160.745 59.3275 163.27 60.5025 163.27 60.5025C163.27 60.5025 161.265 57.4525 158.955 57.0825C155.93 56.5925 154.185 59.2875 154.785 59.2925Z" fill="#2C2B2A"/>
<path d="M148.038 59.3374C146.798 59.2924 146.228 58.8124 143.548 58.9824C142.078 59.0774 139.953 60.5174 139.953 60.5174C139.953 60.5174 141.653 57.1774 143.978 56.9224C147.028 56.5824 148.633 59.3624 148.038 59.3374Z" fill="#2C2B2A"/>
<path d="M169.396 69.5526C169.376 69.5526 169.356 69.5525 169.336 69.5475L169.316 69.5425C169.281 69.5425 169.241 69.5325 169.201 69.5225C169.201 69.5225 168.431 67.5075 169.696 66.2825C170.201 65.7975 170.631 65.6025 170.986 65.6025C171.801 65.6025 172.211 66.6575 172.181 67.6125C172.176 67.8825 172.136 67.9775 172.066 67.9775C171.981 67.9775 171.856 67.8525 171.701 67.7275C171.541 67.6025 171.346 67.4775 171.116 67.4775C170.971 67.4775 170.811 67.5325 170.636 67.6675C169.431 68.6375 169.926 69.5526 169.396 69.5526Z" fill="#4B4042"/>
<path d="M150.606 74.6627C149.321 74.6627 148.666 73.1227 148.211 71.5327C148.216 71.5377 148.951 72.2427 150.011 72.2427C150.286 72.2427 150.591 72.1927 150.906 72.0727C151.656 71.7827 152.221 71.6577 152.626 71.6577C153.256 71.6577 153.486 71.9577 153.441 72.3677V72.3877C153.346 73.1227 152.366 74.2027 151.166 74.5727C150.966 74.6327 150.781 74.6627 150.606 74.6627Z" fill="#4B4042"/>
<path d="M149.475 64.2425C149.48 64.3725 149.48 64.4975 149.48 64.6175C149.48 66.4275 149.125 67.7875 148.765 68.8625C148.585 69.3975 148.405 69.8625 148.265 70.2775C148.125 70.6975 148.02 71.0675 148.02 71.4325C148.02 71.6625 148.065 71.8875 148.17 72.0975C148.5 72.7475 148.85 73.1325 149.13 73.3525C149.41 73.5725 149.62 73.6275 149.655 73.6375C149.815 73.6725 149.97 73.5725 150.01 73.4125C150.045 73.2575 149.945 73.0975 149.785 73.0625L149.755 73.1975L149.795 73.0625H149.785L149.755 73.1975L149.795 73.0625C149.79 73.0625 149.66 73.0275 149.455 72.8575C149.25 72.6875 148.975 72.3775 148.695 71.8275C148.635 71.7125 148.605 71.5875 148.605 71.4325C148.605 71.1875 148.685 70.8625 148.82 70.4675C149.02 69.8725 149.335 69.1125 149.595 68.1525C149.86 67.1975 150.07 66.0325 150.07 64.6175C150.07 64.4925 150.07 64.3625 150.065 64.2275C150.06 64.0675 149.925 63.9375 149.765 63.9425C149.6 63.9475 149.47 64.0825 149.475 64.2425Z" fill="#2F2C2D"/>
<path d="M152.591 72.6974C152.581 72.6824 152.526 72.5974 152.421 72.5074C152.311 72.4174 152.136 72.3174 151.911 72.3174C151.671 72.3174 151.416 72.4274 151.166 72.6574C151.051 72.7674 151.041 72.9524 151.151 73.0724C151.261 73.1924 151.446 73.1974 151.566 73.0874C151.746 72.9274 151.851 72.9074 151.911 72.9074C151.961 72.9074 152.006 72.9274 152.046 72.9574L152.086 73.0024L152.096 73.0124L152.241 72.9174L152.096 73.0074V73.0124L152.241 72.9174L152.096 73.0074C152.181 73.1474 152.361 73.1874 152.496 73.1024C152.636 73.0174 152.676 72.8374 152.591 72.6974Z" fill="#2F2C2D"/>
<path d="M151.348 83.1976C151.208 83.1976 151.068 83.1926 150.933 83.1726L150.888 83.1676C150.058 83.0626 149.403 82.7026 149.398 82.5076C149.398 82.5026 149.398 82.4976 149.398 82.4926C149.408 82.4176 149.523 82.3976 149.713 82.3976C149.868 82.3976 150.073 82.4126 150.313 82.4276C150.548 82.4426 150.823 82.4576 151.113 82.4576C151.213 82.4576 151.313 82.4526 151.418 82.4476C152.153 82.4176 152.853 82.3076 153.238 82.3076C153.433 82.3076 153.548 82.3326 153.548 82.4126C153.558 82.6526 152.583 83.1526 151.488 83.1976C151.443 83.1976 151.393 83.1976 151.348 83.1976Z" fill="#4B4042"/>
<path d="M172.414 68.3623C172.419 68.3473 172.529 67.8873 172.529 67.3223C172.529 66.9123 172.474 66.4473 172.254 66.0373C172.139 65.8323 171.979 65.6423 171.764 65.5073C171.549 65.3673 171.284 65.2823 170.979 65.2623C170.924 65.2573 170.869 65.2573 170.814 65.2573C170.409 65.2573 170.059 65.3573 169.779 65.5423C169.354 65.8173 169.094 66.2473 168.939 66.7023C168.789 67.1573 168.734 67.6523 168.734 68.1073C168.734 68.5673 168.789 68.9873 168.869 69.2873C168.889 69.3773 168.899 69.4623 168.899 69.5323C168.899 69.6823 168.859 69.7823 168.799 69.8723C168.709 70.0073 168.549 70.1123 168.404 70.1723C168.329 70.2023 168.264 70.2223 168.219 70.2373C168.194 70.2423 168.179 70.2473 168.169 70.2473L168.154 70.2523C167.994 70.2823 167.889 70.4323 167.919 70.5923C167.944 70.7523 168.099 70.8573 168.259 70.8323C168.279 70.8273 168.554 70.7773 168.849 70.6023C168.999 70.5123 169.159 70.3873 169.284 70.2073C169.404 70.0323 169.489 69.7973 169.489 69.5323C169.489 69.4073 169.469 69.2773 169.434 69.1373C169.374 68.9023 169.324 68.5223 169.324 68.1073C169.324 67.5623 169.414 66.9673 169.649 66.5373C169.764 66.3223 169.909 66.1523 170.094 66.0373C170.279 65.9173 170.509 65.8473 170.814 65.8423C170.854 65.8423 170.899 65.8473 170.939 65.8473C171.164 65.8623 171.324 65.9223 171.449 65.9973C171.629 66.1173 171.754 66.3023 171.834 66.5373C171.914 66.7773 171.944 67.0573 171.944 67.3223C171.944 67.5673 171.919 67.7923 171.894 67.9623C171.879 68.0423 171.869 68.1123 171.859 68.1573C171.854 68.1773 171.849 68.1973 171.849 68.2073L171.844 68.2223C171.809 68.3823 171.904 68.5373 172.064 68.5773C172.219 68.6123 172.379 68.5173 172.414 68.3623Z" fill="#2F2C2D"/>
<path d="M156.495 65.2874C156.54 66.3924 157.16 67.2724 157.875 67.2424C158.595 67.2124 159.14 66.2874 159.095 65.1774C159.045 64.0674 158.425 63.1924 157.71 63.2224C156.995 63.2524 156.45 64.1774 156.495 65.2874Z" fill="#1D1D1D"/>
<path d="M143.424 64.9974C143.469 66.1074 144.089 66.9824 144.809 66.9524C145.524 66.9224 146.069 65.9974 146.024 64.8874C145.979 63.7824 145.359 62.9024 144.639 62.9324C143.924 62.9624 143.379 63.8874 143.424 64.9974Z" fill="#1D1D1D"/>
<path d="M160.114 64.3277C160.109 64.3127 159.944 63.8477 159.609 63.3627C159.439 63.1177 159.224 62.8677 158.949 62.6677C158.679 62.4677 158.344 62.3227 157.959 62.3027C157.934 62.3027 157.904 62.3027 157.879 62.3027C157.519 62.3027 157.199 62.4077 156.929 62.5577C156.524 62.7827 156.234 63.1027 156.039 63.3677C155.844 63.6327 155.744 63.8377 155.739 63.8527C155.669 63.9977 155.734 64.1727 155.879 64.2427C156.024 64.3127 156.199 64.2477 156.269 64.1027L156.179 64.0627L156.269 64.1027L156.179 64.0627L156.269 64.1027C156.269 64.0977 156.429 63.7777 156.714 63.4727C156.854 63.3177 157.029 63.1727 157.224 63.0627C157.419 62.9577 157.634 62.8927 157.879 62.8877L157.934 62.8927C158.184 62.9027 158.399 62.9927 158.604 63.1427C158.904 63.3627 159.154 63.7127 159.314 64.0027C159.399 64.1527 159.459 64.2827 159.499 64.3777C159.524 64.4227 159.534 64.4627 159.544 64.4877L159.559 64.5127V64.5227C159.614 64.6727 159.779 64.7527 159.934 64.7027C160.089 64.6477 160.169 64.4777 160.114 64.3277Z" fill="#1D1D1D"/>
<path d="M146.474 63.6527C146.469 63.6327 146.409 63.2877 146.194 62.9077C146.084 62.7177 145.934 62.5177 145.719 62.3527C145.509 62.1877 145.234 62.0577 144.909 62.0227C144.844 62.0177 144.779 62.0127 144.714 62.0127C144.304 62.0127 143.954 62.1577 143.674 62.3627C143.254 62.6727 142.984 63.1027 142.809 63.4527C142.634 63.8077 142.559 64.0827 142.554 64.0977C142.509 64.2527 142.604 64.4127 142.759 64.4577C142.914 64.5027 143.079 64.4077 143.119 64.2527C143.129 64.2127 143.264 63.7677 143.539 63.3627C143.674 63.1527 143.844 62.9627 144.039 62.8227C144.234 62.6877 144.449 62.6027 144.714 62.6027C144.754 62.6027 144.799 62.6027 144.844 62.6077C145.064 62.6327 145.224 62.7077 145.359 62.8127C145.564 62.9727 145.704 63.2077 145.784 63.4077C145.829 63.5077 145.854 63.5977 145.874 63.6577C145.879 63.6927 145.889 63.7127 145.889 63.7327L145.894 63.7477V63.7527L145.974 63.7377L145.894 63.7527L145.974 63.7377L145.894 63.7527C145.924 63.9127 146.074 64.0177 146.234 63.9877C146.394 63.9627 146.499 63.8127 146.474 63.6527Z" fill="#1D1D1D"/>
<path d="M157.121 76.0174C157.121 76.0174 154.351 75.9074 151.206 76.1424C149.436 76.2774 145.891 76.3624 145.891 76.3624C145.891 76.3624 147.561 82.8575 151.756 82.2925C155.956 81.7224 157.121 76.0174 157.121 76.0174Z" fill="#2F2C2D"/>
<path d="M157.121 76.0176C157.121 76.0176 153.551 77.2176 151.201 77.3126C148.501 77.4226 145.891 76.3626 145.891 76.3626C145.891 76.3626 147.906 80.6976 151.676 80.3826C155.451 80.0726 157.121 76.0176 157.121 76.0176Z" fill="#FEFEFE"/>
<path d="M157.121 76.0175C157.121 76.0175 154.341 75.5925 151.206 76.1425C148.596 75.7775 145.891 76.3625 145.891 76.3625L157.121 76.0175Z" fill="#4B4042"/>
<path fill-rule="evenodd" clip-rule="evenodd" d="M180.461 188.633C175.091 190.253 166.981 190.648 156.926 184.883L192.656 127.158C188.996 147.303 185.871 183.933 185.811 185.933C183.456 187.363 182.966 187.503 180.461 188.633Z" fill="#18923F"/>
<path d="M196.081 106.813C207.436 120.553 193.436 179.773 162.941 185.118C161.051 185.448 158.956 185.348 156.926 184.883C150.291 183.378 151.466 173.778 155.256 166.958C157.626 162.678 160.746 158.513 162.376 154.363C168.221 139.523 173.071 127.088 176.726 117.978C182.971 102.423 189.696 99.0876 196.081 106.813Z" fill="#00BE00"/>
<path d="M120.517 128.158L109.087 129.798C108.697 129.853 108.317 129.643 108.157 129.283L95.9619 101.873C95.7269 101.338 96.0669 100.723 96.6469 100.643L107.597 99.0676C108.537 98.9326 109.452 99.4376 109.842 100.308L121.462 126.443C121.792 127.183 121.322 128.038 120.517 128.158Z" fill="#424141"/>
<path d="M118.858 128.392L107.428 130.032C107.038 130.087 106.658 129.877 106.498 129.517L94.3083 102.107C94.0683 101.572 94.4083 100.962 94.9883 100.877L105.943 99.3073C106.883 99.1723 107.798 99.6773 108.183 100.542L119.803 126.677C120.138 127.422 119.663 128.277 118.858 128.392Z" fill="#2C2B2A"/>
<path d="M103.075 105.623C103.35 106.258 103.255 106.913 102.855 107.088C102.46 107.258 101.915 106.883 101.64 106.243C101.365 105.608 101.465 104.953 101.86 104.783C102.255 104.613 102.8 104.988 103.075 105.623Z" fill="#424141"/>
<path d="M98.8193 120.832C98.8193 120.832 97.5893 114.202 98.2493 112.337C98.9143 110.472 103.164 103.712 105.019 104.937C106.869 106.162 102.479 113.222 102.479 113.222L103.004 116.222C103.004 116.222 105.584 114.082 108.519 113.752C111.454 113.427 115.029 113.007 115.524 114.517C116.024 116.032 108.299 118.722 108.299 118.722C108.299 118.722 114.314 116.462 116.704 117.517C119.089 118.572 110.899 122.547 109.519 123.302C108.134 124.062 106.819 126.577 106.819 126.577C106.819 126.577 115.829 120.532 118.494 121.547C121.154 122.562 111.884 129.392 111.884 129.392L115.354 128.897C116.324 132.307 116.229 135.697 114.629 139.062L113.999 147.857C109.919 150.622 106.014 150.487 102.359 146.327L104.434 139.062L99.8043 127.957C99.8043 127.957 97.8893 126.052 98.0093 124.937C98.1293 123.817 98.8193 120.832 98.8193 120.832Z" fill="#9D6553"/>
<path d="M99.5989 120.328C99.5989 120.328 99.6339 120.293 99.6889 120.223C99.8839 119.978 100.409 119.343 101.059 118.618C101.709 117.888 102.489 117.063 103.194 116.443C103.319 116.338 103.329 116.153 103.224 116.028C103.119 115.908 102.929 115.898 102.809 116.003C101.964 116.743 101.049 117.728 100.344 118.533C99.6389 119.338 99.1439 119.963 99.1439 119.963C99.0389 120.088 99.0639 120.273 99.1889 120.378C99.3139 120.478 99.4989 120.458 99.5989 120.328Z" fill="#9C504A"/>
<path d="M101.417 125.732C101.417 125.732 101.437 125.707 101.477 125.662C101.762 125.312 103.097 123.712 104.712 122.117C105.522 121.317 106.402 120.522 107.257 119.882C108.112 119.242 108.942 118.762 109.612 118.587C109.772 118.547 109.867 118.387 109.822 118.232C109.782 118.072 109.622 117.977 109.467 118.022C108.612 118.242 107.677 118.817 106.727 119.547C105.312 120.637 103.872 122.092 102.787 123.272C101.702 124.452 100.967 125.357 100.962 125.362C100.862 125.487 100.882 125.672 101.007 125.777C101.132 125.877 101.317 125.857 101.417 125.732Z" fill="#9C504A"/>
<path d="M110.589 132.368L112.139 129.533C112.219 129.393 112.169 129.213 112.024 129.138C111.884 129.058 111.704 129.113 111.624 129.253L110.074 132.088C109.999 132.228 110.049 132.408 110.189 132.483C110.334 132.563 110.514 132.508 110.589 132.368Z" fill="#9C504A"/>
<path d="M102.863 144.558C102.863 144.558 96.4385 161.943 98.0035 171.028C101.188 189.518 116.713 180.753 119.913 174.823C122.288 170.423 115.438 145.923 115.438 145.923C112.143 149.293 106.858 148.468 102.863 144.558Z" fill="#00BE00"/>
<path d="M199.623 116.538C197.758 118.168 195.323 119.153 192.653 119.153C189.728 119.153 187.083 117.973 185.163 116.053C183.248 114.138 182.063 111.493 182.063 108.568C182.063 105.643 183.248 102.998 185.163 101.083C185.323 100.923 185.488 100.768 185.658 100.618C185.393 100.528 185.128 100.438 184.863 100.353C182.688 102.413 181.328 105.333 181.328 108.568C181.328 114.823 186.398 119.888 192.653 119.888C195.328 119.888 197.788 118.958 199.728 117.408C199.698 117.113 199.658 116.823 199.623 116.538Z" fill="#66D866"/>
<path d="M140.661 112.323H140.296C140.296 115.248 139.111 117.893 137.196 119.808C135.276 121.728 132.631 122.913 129.706 122.913C126.781 122.913 124.136 121.728 122.221 119.808C120.801 118.393 119.786 116.573 119.351 114.543C119.171 114.808 118.986 115.083 118.801 115.368C120.131 120.143 124.506 123.648 129.706 123.648C135.961 123.648 141.031 118.578 141.031 112.323H140.661ZM134.016 102.648C135.206 103.183 136.281 103.928 137.196 104.838C139.111 106.753 140.296 109.398 140.296 112.323H140.661H141.031C141.031 107.928 138.526 104.118 134.866 102.243L134.016 102.648Z" fill="#66D866"/>
<path d="M174.225 161.892H173.855C173.855 164.817 172.67 167.462 170.755 169.377C168.84 171.297 166.195 172.482 163.27 172.482C160.345 172.482 157.7 171.297 155.78 169.377C153.865 167.462 152.68 164.817 152.68 161.892C152.68 158.967 153.865 156.322 155.78 154.407C157.7 152.487 160.345 151.307 163.27 151.307C166.195 151.307 168.84 152.487 170.755 154.407C172.67 156.322 173.855 158.967 173.855 161.892H174.225H174.59C174.59 155.637 169.52 150.572 163.27 150.572C157.015 150.572 151.945 155.637 151.945 161.892C151.945 168.147 157.015 173.217 163.27 173.217C169.52 173.217 174.59 168.147 174.59 161.892H174.225Z" fill="#66D866"/>
<path d="M193.385 153.962C191.145 153.602 189.14 152.537 187.605 151.002C185.69 149.082 184.505 146.437 184.505 143.512C184.505 140.587 185.69 137.942 187.605 136.027C189.525 134.112 192.17 132.927 195.095 132.927C196.495 132.927 197.835 133.197 199.065 133.697C199.1 133.447 199.14 133.197 199.18 132.952C197.91 132.462 196.535 132.192 195.095 132.192C188.84 132.192 183.77 137.262 183.77 143.512C183.77 149.087 187.795 153.717 193.1 154.662C193.195 154.427 193.29 154.197 193.385 153.962Z" fill="#66D866"/>
<path d="M172.194 124.883H171.824C171.824 126.783 171.054 128.503 169.809 129.748C168.564 130.993 166.844 131.763 164.944 131.763C163.039 131.763 161.324 130.993 160.074 129.748C158.829 128.503 158.059 126.783 158.059 124.883C158.059 122.978 158.829 121.263 160.074 120.013C161.324 118.768 163.039 117.998 164.944 117.998C166.844 117.998 168.564 118.768 169.809 120.013C171.054 121.263 171.824 122.978 171.824 124.883H172.194H172.559C172.559 120.673 169.149 117.263 164.944 117.263C160.734 117.263 157.324 120.673 157.324 124.883C157.324 129.088 160.734 132.498 164.944 132.498C169.149 132.498 172.559 129.088 172.559 124.883H172.194Z" fill="#66D866"/>
<path d="M161.678 194.572C162.023 193.557 162.598 192.647 163.338 191.902C164.583 190.657 166.303 189.887 168.203 189.887C169.963 189.887 171.563 190.542 172.783 191.627C173.043 191.542 173.308 191.452 173.568 191.362C172.193 189.997 170.298 189.152 168.203 189.152C164.703 189.152 161.753 191.517 160.863 194.737C161.133 194.682 161.408 194.627 161.678 194.572Z" fill="#79BC67"/>
<path d="M108.438 166.827H108.068C108.068 168.732 107.298 170.447 106.053 171.697C104.808 172.942 103.088 173.712 101.188 173.712C100.213 173.712 99.2931 173.512 98.4531 173.147C98.5331 173.447 98.6131 173.742 98.6931 174.027C99.4781 174.297 100.313 174.447 101.188 174.447C105.393 174.447 108.803 171.037 108.803 166.827H108.438ZM98.5031 160.487C99.3281 160.142 100.233 159.947 101.188 159.947C103.088 159.947 104.808 160.717 106.053 161.962C107.298 163.207 108.068 164.927 108.068 166.827H108.438H108.803C108.803 162.622 105.393 159.212 101.188 159.212C100.298 159.212 99.4481 159.362 98.6581 159.642C98.6031 159.922 98.5531 160.207 98.5031 160.487Z" fill="#66D866"/>
<path d="M144.205 183.503H143.84C143.84 185.403 143.07 187.123 141.825 188.368C140.575 189.613 138.855 190.383 136.955 190.383C135.055 190.383 133.335 189.613 132.09 188.368C130.845 187.123 130.075 185.403 130.075 183.503C130.075 181.598 130.845 179.883 132.09 178.633C133.335 177.388 135.055 176.618 136.955 176.618C138.855 176.618 140.575 177.388 141.825 178.633C143.07 179.883 143.84 181.598 143.84 183.503H144.205H144.575C144.575 179.293 141.165 175.883 136.955 175.883C132.75 175.883 129.34 179.293 129.34 183.503C129.34 187.708 132.75 191.118 136.955 191.118C141.165 191.118 144.575 187.708 144.575 183.503H144.205Z" fill="#66D866"/>
<path d="M145.21 148.502L142.635 150.827C142.54 150.907 142.5 151.028 142.515 151.148C142.515 151.158 143.555 158.713 145.84 166.738C146.98 170.748 148.435 174.878 150.235 178.253C151.135 179.938 152.12 181.438 153.21 182.638C154.295 183.843 155.485 184.748 156.795 185.228C156.99 185.298 157.2 185.203 157.27 185.013C157.34 184.818 157.24 184.608 157.05 184.538C155.89 184.113 154.785 183.288 153.755 182.148C151.945 180.153 150.365 177.203 149.035 173.908C147.035 168.963 145.585 163.243 144.635 158.762C144.16 156.522 143.815 154.593 143.585 153.222C143.47 152.537 143.385 151.992 143.325 151.622C143.3 151.437 143.275 151.292 143.265 151.197C143.25 151.097 143.245 151.047 143.245 151.047L142.88 151.097L143.125 151.372L145.7 149.047C145.855 148.912 145.865 148.677 145.73 148.527C145.595 148.377 145.36 148.367 145.21 148.502Z" fill="#18923F"/>
<path d="M154.68 140.553L166.49 162.067C166.59 162.247 166.81 162.312 166.99 162.212C167.17 162.117 167.235 161.892 167.135 161.717L155.325 140.198C155.225 140.023 155 139.958 154.825 140.053C154.645 140.153 154.58 140.373 154.68 140.553Z" fill="#18923F"/>
<path d="M176.209 118.167L162.144 153.877C162.104 153.972 162.109 154.077 162.154 154.172C162.199 154.262 162.279 154.332 162.374 154.362C164.504 155.037 166.719 156.467 168.384 157.727C169.219 158.362 169.914 158.952 170.404 159.382C170.649 159.597 170.839 159.772 170.969 159.892C171.034 159.952 171.084 160.002 171.119 160.032L171.159 160.067L171.169 160.082C171.314 160.222 171.549 160.217 171.689 160.072C171.829 159.927 171.829 159.697 171.679 159.552C171.674 159.547 170.529 158.432 168.829 157.142C167.124 155.852 164.869 154.382 162.599 153.662L162.484 154.012L162.829 154.147L176.894 118.437C176.969 118.252 176.874 118.037 176.684 117.962C176.499 117.887 176.284 117.982 176.209 118.167Z" fill="#18923F"/>
<path d="M114.24 144.473L115.44 145.923L114.055 147.098L114.24 144.473Z" fill="#18923F"/>
<path d="M118.553 163.938L115.803 145.868C115.773 145.668 115.583 145.528 115.383 145.558C115.183 145.588 115.048 145.778 115.078 145.978L117.823 164.048C117.853 164.248 118.043 164.388 118.243 164.358C118.443 164.323 118.583 164.138 118.553 163.938Z" fill="#18923F"/>
<path d="M104.61 128.798L109.71 125.118C109.84 125.023 109.87 124.843 109.775 124.708C109.68 124.578 109.5 124.548 109.365 124.643L104.265 128.323C104.135 128.413 104.105 128.598 104.2 128.733C104.295 128.863 104.475 128.893 104.61 128.798Z" fill="#9C504A"/>
<path fill-rule="evenodd" clip-rule="evenodd" d="M139.157 111.673C140.832 114.508 147.592 126.318 147.592 126.318L155.002 140.378L145.457 148.773L140.442 133.863C140.442 133.863 138.702 134.198 136.797 133.003C133.947 131.218 133.202 128.983 129.212 123.583C128.747 122.948 127.087 122.453 127.087 122.453C130.872 128.538 123.612 125.003 123.032 124.603C122.332 124.128 121.462 119.573 122.112 118.553C122.472 117.988 123.937 117.113 123.937 117.113C123.937 117.113 123.332 115.798 124.002 114.468C124.677 113.138 126.077 113.173 126.077 113.173C126.077 113.173 125.347 111.808 126.817 110.608C128.417 109.293 134.472 111.418 134.472 111.418C134.472 111.418 126.782 102.098 127.907 98.5477C128.852 97.1277 133.812 104.003 139.157 111.673Z" fill="#9D6553"/>
<path d="M136.265 111.863C136.26 111.863 135.035 111.363 133.465 110.868C131.895 110.373 129.985 109.873 128.57 109.868C128.055 109.868 127.605 109.933 127.245 110.108C127.14 110.158 127.095 110.288 127.145 110.398C127.195 110.503 127.325 110.548 127.435 110.498C127.7 110.368 128.095 110.303 128.57 110.303C129.885 110.298 131.785 110.788 133.335 111.278C134.11 111.528 134.805 111.773 135.3 111.958C135.55 112.048 135.75 112.123 135.89 112.178C136.025 112.233 136.1 112.263 136.1 112.263C136.21 112.308 136.34 112.253 136.38 112.143C136.425 112.033 136.375 111.908 136.265 111.863Z" fill="#9C504A"/>
<path d="M134.257 115.247C134.257 115.242 132.916 114.727 131.221 114.207C130.376 113.947 129.441 113.687 128.541 113.492C127.641 113.297 126.771 113.167 126.051 113.167C125.731 113.167 125.441 113.192 125.186 113.252C125.066 113.282 124.996 113.397 125.026 113.512C125.051 113.632 125.171 113.702 125.286 113.672C125.496 113.622 125.756 113.597 126.051 113.597C126.721 113.597 127.566 113.722 128.451 113.917C129.776 114.202 131.191 114.637 132.271 114.997C132.816 115.177 133.271 115.342 133.596 115.457C133.756 115.517 133.881 115.567 133.971 115.597C134.056 115.632 134.102 115.647 134.102 115.647C134.212 115.692 134.337 115.637 134.382 115.522C134.427 115.412 134.372 115.287 134.257 115.247Z" fill="#9C504A"/>
<path d="M131.934 118.877C131.929 118.877 130.864 118.407 129.429 117.932C127.989 117.457 126.184 116.982 124.674 116.982C124.139 116.982 123.639 117.042 123.204 117.187C122.769 117.337 122.389 117.577 122.124 117.932C122.054 118.032 122.074 118.167 122.169 118.237C122.264 118.307 122.399 118.287 122.469 118.192C122.674 117.917 122.964 117.727 123.344 117.597C123.719 117.472 124.174 117.412 124.674 117.412C126.099 117.412 127.879 117.872 129.294 118.342C129.999 118.577 130.619 118.807 131.059 118.982C131.279 119.072 131.454 119.142 131.574 119.197C131.634 119.222 131.684 119.242 131.714 119.252C131.744 119.267 131.759 119.272 131.759 119.272C131.869 119.322 131.994 119.272 132.044 119.167C132.094 119.057 132.044 118.927 131.934 118.877Z" fill="#9C504A"/>
<path d="M123.959 121.923C123.959 121.923 124.034 121.938 124.169 121.963C124.629 122.048 125.794 122.283 126.874 122.603C127.414 122.763 127.934 122.948 128.329 123.138C128.524 123.233 128.689 123.328 128.804 123.423C128.924 123.513 128.989 123.603 129.004 123.653C129.049 123.768 129.169 123.823 129.284 123.783C129.394 123.743 129.454 123.618 129.414 123.508C129.339 123.313 129.189 123.168 129.004 123.033C128.679 122.798 128.214 122.598 127.694 122.413C126.129 121.863 124.039 121.498 124.034 121.498C123.919 121.478 123.804 121.558 123.784 121.673C123.764 121.793 123.844 121.903 123.959 121.923Z" fill="#9C504A"/>
<path d="M124.156 125.953C123.336 128.233 122.891 130.058 122.536 131.353C121.966 133.423 121.681 134.703 120.846 138.528C120.546 139.913 120.291 141.208 120.116 142.363C119.941 143.518 119.836 144.528 119.836 145.338C119.836 145.708 119.856 146.038 119.906 146.328C120.111 147.508 120.361 149.533 120.621 151.943C121.011 155.563 121.426 160.073 121.761 164.008C122.101 167.948 122.356 171.318 122.426 172.653C122.436 172.858 122.606 173.013 122.811 173.003C123.011 172.993 123.171 172.818 123.156 172.618C123.066 170.808 122.641 165.418 122.136 159.868C121.881 157.093 121.611 154.283 121.351 151.863C121.086 149.443 120.841 147.418 120.631 146.203C120.591 145.973 120.571 145.678 120.571 145.338C120.571 144.588 120.671 143.608 120.841 142.478C121.361 139.073 121.911 136.823 122.336 135.038C122.761 133.273 123.066 131.978 124.071 128.693C124.311 127.913 124.506 127.283 124.646 126.848C124.781 126.413 124.856 126.173 124.856 126.173C124.916 125.983 124.811 125.773 124.616 125.713C124.426 125.653 124.216 125.758 124.156 125.953Z" fill="#18923F"/>
</g>
<defs>
<clipPath id="clip0_1220_32470">
<rect width="200" height="197.75" fill="white"/>
</clipPath>
</defs>
</svg>
