<svg width="24" height="24" viewBox="0 0 24 24" fill="none" xmlns="http://www.w3.org/2000/svg">
<path d="M12 2C6.477 2 2 6.477 2 12C2 17.523 6.477 22 12 22C17.523 22 22 17.523 22 12C22 10.6868 21.7413 9.38642 21.2388 8.17317C20.7362 6.95991 19.9997 5.85752 19.0711 4.92893C18.1425 4.00035 17.0401 3.26375 15.8268 2.7612C14.6136 2.25866 13.3132 2 12 2ZM20.133 11H17.871C17.7943 8.88292 17.2172 6.81411 16.187 4.963C17.2614 5.60195 18.1754 6.47806 18.8594 7.52438C19.5433 8.5707 19.9789 9.75953 20.133 11ZM11 4.176V11H7.945C8.166 7.5 9.507 4.973 11 4.176ZM13 4.176C14.493 4.976 15.833 7.496 16.055 11H13V4.176ZM7.813 4.963C6.7828 6.81411 6.20571 8.88292 6.129 11H3.867C4.02109 9.75953 4.45674 8.5707 5.14065 7.52438C5.82456 6.47806 6.73863 5.60195 7.813 4.963ZM20.133 13C19.9784 14.2415 19.5421 15.4312 18.8573 16.4782C18.1725 17.5252 17.2574 18.4018 16.182 19.041C17.0605 17.4902 17.6061 15.7734 17.784 14H15.957C15.566 16.979 14.346 19.105 13 19.824V14H11V19.824C9.654 19.105 8.434 16.979 8.042 14H6.216C6.393 15.773 6.938 17.49 7.816 19.041C6.74092 18.4016 5.82623 17.5249 5.14181 16.4779C4.45739 15.4309 4.02135 14.2413 3.867 13H20.133Z" fill="#848E9C"/>
</svg>
