<svg width="24" height="24" viewBox="0 0 24 24" fill="none" xmlns="http://www.w3.org/2000/svg">
<path d="M11.979 5C13.8349 5.00212 15.6141 5.7403 16.9264 7.05259C18.2387 8.36489 18.9769 10.1441 18.979 12C18.979 13.3845 18.5685 14.7378 17.7993 15.889C17.0301 17.0401 15.9369 17.9373 14.6578 18.4672C13.3787 18.997 11.9712 19.1356 10.6134 18.8655C9.2555 18.5954 8.00822 17.9287 7.02925 16.9497C6.05028 15.9708 5.3836 14.7235 5.1135 13.3656C4.84341 12.0078 4.98203 10.6003 5.51184 9.32122C6.04166 8.04213 6.93886 6.94888 8.09001 6.17971C9.24115 5.41054 10.5945 5 11.979 5ZM11.979 17C13.3051 17 14.5769 16.4732 15.5145 15.5355C16.4522 14.5979 16.979 13.3261 16.979 12C16.979 10.6739 16.4522 9.40215 15.5145 8.46447C14.5769 7.52678 13.3051 7 11.979 7C10.6529 7 9.38115 7.52678 8.44347 8.46447C7.50578 9.40215 6.979 10.6739 6.979 12C6.979 13.3261 7.50578 14.5979 8.44347 15.5355C9.38115 16.4732 10.6529 17 11.979 17ZM11.146 1H12.854V4H11.146V1ZM11.146 20H12.854V23H11.146V20ZM17.042 5.73L19.163 3.608L20.391 4.836L18.271 6.957L17.041 5.729L17.042 5.73ZM3.607 19.163L5.728 17.042L6.956 18.27L4.836 20.391L3.606 19.163H3.607ZM17.042 18.269L18.27 17.041L20.391 19.162L19.163 20.39L17.042 18.269ZM3.607 4.835L4.835 3.607L6.956 5.728L5.728 6.956L3.607 4.835ZM20 11.146H23V12.854H20V11.146ZM1 11.146H4V12.854H1V11.146Z" fill="#848E9C"/>
</svg>
