<svg width="24" height="24" viewBox="0 0 24 24" fill="none" xmlns="http://www.w3.org/2000/svg">
<path d="M20.27 14.33C20.1737 13.9477 19.9518 13.6088 19.6399 13.3676C19.3281 13.1265 18.9442 12.997 18.55 13H17V11H18.56C19.3996 10.9978 20.2157 11.2775 20.8775 11.7943C21.5393 12.311 22.0085 13.0349 22.21 13.85L23 17H20.94L20.27 14.33ZM3.73 14.33L3.06 17H1L1.79 13.85C1.99151 13.0349 2.46073 12.311 3.12252 11.7943C3.78431 11.2775 4.60037 10.9978 5.44 11H7V13H5.44C5.04748 12.9993 4.66597 13.1297 4.35613 13.3707C4.04629 13.6117 3.8259 13.9494 3.73 14.33ZM12 8.8C11.5588 8.79195 11.1323 8.95887 10.8137 9.26429C10.4952 9.56972 10.3105 9.98881 10.3 10.43V11.57C10.3 12.0209 10.4791 12.4533 10.7979 12.7721C11.1167 13.0909 11.5491 13.27 12 13.27C12.4509 13.27 12.8833 13.0909 13.2021 12.7721C13.5209 12.4533 13.7 12.0209 13.7 11.57V10.43C13.6895 9.98881 13.5048 9.56972 13.1863 9.26429C12.8677 8.95887 12.4412 8.79195 12 8.8ZM12 7C12.9186 6.992 13.8029 7.34857 14.459 7.99155C15.1151 8.63452 15.4894 9.51143 15.5 10.43V11.57C15.5 12.4983 15.1313 13.3885 14.4749 14.0449C13.8185 14.7012 12.9283 15.07 12 15.07C11.0717 15.07 10.1815 14.7012 9.52513 14.0449C8.86875 13.3885 8.5 12.4983 8.5 11.57V10.43C8.51055 9.51143 8.88492 8.63452 9.54102 7.99155C10.1971 7.34857 11.0814 6.992 12 7ZM18.51 3.8C18.0688 3.79195 17.6423 3.95887 17.3237 4.2643C17.0052 4.56972 16.8205 4.98881 16.81 5.43V6.57C16.81 6.79325 16.854 7.01431 16.9394 7.22056C17.0248 7.42681 17.1501 7.61422 17.3079 7.77208C17.4658 7.92994 17.6532 8.05516 17.8594 8.14059C18.0657 8.22603 18.2868 8.27 18.51 8.27C18.7332 8.27 18.9543 8.22603 19.1606 8.14059C19.3668 8.05516 19.5542 7.92994 19.7121 7.77208C19.8699 7.61422 19.9952 7.42681 20.0806 7.22056C20.166 7.01431 20.21 6.79325 20.21 6.57V5.43C20.1995 4.98881 20.0148 4.56972 19.6963 4.2643C19.3777 3.95887 18.9512 3.79195 18.51 3.8ZM18.51 2C19.4269 1.99465 20.3086 2.35241 20.9625 2.9951C21.6165 3.63779 21.9894 4.51317 22 5.43V6.57C22 7.49826 21.6313 8.38849 20.9749 9.04487C20.3185 9.70125 19.4283 10.07 18.5 10.07C17.5717 10.07 16.6815 9.70125 16.0251 9.04487C15.3687 8.38849 15 7.49826 15 6.57V5.43C15.0132 4.51052 15.3897 3.63363 16.0474 2.99093C16.7051 2.34824 17.5905 1.99198 18.51 2ZM5.47 3.8C5.02876 3.79195 4.60228 3.95887 4.28374 4.2643C3.9652 4.56972 3.7805 4.98881 3.77 5.43V6.57C3.77 7.02087 3.94911 7.45327 4.26792 7.77208C4.58673 8.09089 5.01913 8.27 5.47 8.27C5.92087 8.27 6.35327 8.09089 6.67208 7.77208C6.99089 7.45327 7.17 7.02087 7.17 6.57V5.43C7.1595 4.98881 6.9748 4.56972 6.65626 4.2643C6.33772 3.95887 5.91124 3.79195 5.47 3.8ZM5.47 2C5.92701 1.99338 6.38085 2.07686 6.8056 2.24567C7.23035 2.41447 7.61768 2.66529 7.94548 2.9838C8.27328 3.30232 8.53513 3.68229 8.71606 4.10201C8.897 4.52173 8.99348 4.97298 9 5.43V6.57C9 7.49826 8.63125 8.38849 7.97487 9.04487C7.3185 9.70125 6.42826 10.07 5.5 10.07C4.57174 10.07 3.6815 9.70125 3.02513 9.04487C2.36875 8.38849 2 7.49826 2 6.57V5.43C2.01053 4.51665 2.38076 3.64428 3.03037 3.00215C3.67999 2.36003 4.55659 1.99994 5.47 2ZM7 22H5L5.76 18.85C5.96151 18.0349 6.43073 17.311 7.09252 16.7943C7.75431 16.2775 8.57037 15.9978 9.41 16H14.41C15.239 15.9933 16.0469 16.2615 16.7073 16.7627C17.3677 17.2639 17.8434 17.9698 18.06 18.77L18.87 22H16.81L16.15 19.33C16.0541 18.9494 15.8337 18.6117 15.5239 18.3707C15.214 18.1297 14.8325 17.9993 14.44 18H9.44C9.05153 17.9873 8.66967 18.1028 8.35339 18.3287C8.03711 18.5547 7.80398 18.8784 7.69 19.25L7 22Z" fill="#848E9C"/>
</svg>
