<svg width="24" height="24" viewBox="0 0 24 24" fill="none" xmlns="http://www.w3.org/2000/svg">
<path d="M12 2.12799C17.52 2.13399 21.994 6.60799 22 12.128V22H20V12.128C20 10.0063 19.1571 7.97143 17.6569 6.47114C16.1566 4.97085 14.1217 4.12799 12 4.12799C9.87827 4.12799 7.84344 4.97085 6.34315 6.47114C4.84285 7.97143 4 10.0063 4 12.128V22H2V12.128C2.006 6.60799 6.48 2.13399 12 2.12799ZM14.9 5.98299C15.0018 7.1133 15.4503 8.18455 16.1843 9.0502C16.9182 9.91584 17.9016 10.5336 19 10.819V14.2C18.9987 16.0343 18.2696 17.7931 16.9727 19.0903C15.6759 20.3875 13.9173 21.1171 12.083 21.119H11.917C10.0831 21.1171 8.32478 20.3878 7.02799 19.091C5.7312 17.7942 5.00185 16.0359 5 14.202V14.082C5.6582 14.2649 6.33401 14.3772 7.016 14.417C7.07083 15.6805 7.61078 16.8742 8.52348 17.7496C9.43618 18.6251 10.6513 19.1148 11.916 19.117H12.082C13.3856 19.1154 14.6353 18.5969 15.5571 17.6751C16.4789 16.7533 16.9974 15.5036 16.999 14.2V12.174C15.6735 11.5081 14.5752 10.4641 13.843 9.17399C12.9962 10.6883 11.6488 11.8608 10.0321 12.4905C8.41539 13.1201 6.62996 13.1677 4.982 12.625L4.988 10.478C5.78717 10.8544 6.66545 11.0322 7.54811 10.9963C8.43077 10.9603 9.29168 10.7117 10.0576 10.2715C10.8235 9.83126 11.4717 9.21256 11.9471 8.46798C12.4225 7.72341 12.711 6.87502 12.788 5.99499L14.9 5.98299Z" fill="#848E9C"/>
</svg>
