<svg width="174" height="27" viewBox="0 0 174 27" fill="none" xmlns="http://www.w3.org/2000/svg">
<g clip-path="url(#clip0_1196_30440)">
<path d="M45.48 2.803C45.48 4.40593 44.2726 5.58404 42.5752 5.58404C40.9434 5.58404 39.666 4.41031 39.666 2.80738C39.666 1.20445 40.939 0.0613864 42.5708 0.0570068C44.2682 0.0570068 45.48 1.20007 45.48 2.803ZM40.2259 8.36508H44.8982L44.9112 26.3477H40.2391L40.2259 8.36508Z" fill="black"/>
<path d="M66.5441 15.0483L66.5529 26.3301H61.8807L61.872 16.0644C61.872 13.7126 60.9882 12.4031 58.5034 12.4031C55.8611 12.4031 54.4568 13.9447 54.4568 16.8878L54.4656 26.3389H49.7933L49.7803 8.3563H54.4524V10.8045C55.7605 8.96945 57.5541 7.95775 60.039 7.95337C64.09 7.95337 66.5398 10.6293 66.5441 15.0439" fill="black"/>
<path d="M91.8118 14.8642C91.8161 21.4074 86.7898 26.3125 80.1271 26.3169H71.8633L71.8457 3.43357L80.1096 3.42481C86.7723 3.42043 91.8074 8.28615 91.8118 14.8599V14.8642ZM87.1399 14.8599C87.1399 10.7387 84.2262 7.86571 80.1096 7.87009H76.5136L76.5223 21.8716H80.1184C84.2349 21.8673 87.1399 18.9855 87.1355 14.8642" fill="black"/>
<path d="M107.106 7.98401V12.7928C106.751 12.7577 106.489 12.7271 105.968 12.7271C102.994 12.7271 100.447 14.041 100.452 18.2891V26.2994H95.7884L95.7754 8.31686H100.447V11.4527C101.558 9.09643 103.518 7.91831 106.065 7.91394C106.489 7.91394 106.813 7.94897 107.111 7.97963" fill="black"/>
<path d="M116.573 2.746C116.573 4.34893 115.365 5.52703 113.668 5.52703C112.037 5.52703 110.759 4.35331 110.759 2.75038C110.754 1.14745 112.028 0 113.659 0C115.357 0 116.569 1.14308 116.569 2.746H116.573ZM111.315 8.30807H115.987L116 26.2906H111.328L111.315 8.30807Z" fill="black"/>
<path d="M137.664 8.28613L131.509 26.2775L125.918 26.2818L119.732 8.30366L124.698 8.29928L128.692 21.2146L132.699 8.29051L137.664 8.28613Z" fill="black"/>
<path d="M158.369 18.473L144.584 18.4862C144.882 21.3636 146.842 22.8001 149.256 22.8001C151.055 22.8001 152.621 21.9811 153.242 20.5402H158.075C156.742 24.7884 153.15 26.6541 149.291 26.6584C143.674 26.6584 139.816 22.6774 139.812 17.3124C139.807 11.9168 143.692 7.89195 149.178 7.88758C155.123 7.8832 158.819 12.5562 158.364 18.4774L158.369 18.473ZM144.807 15.0525H153.399C152.875 13.0818 151.404 11.746 149.147 11.746C146.864 11.746 145.393 13.1212 144.807 15.0525Z" fill="black"/>
<path d="M173.996 7.93128V12.74C173.642 12.705 173.379 12.6744 172.859 12.6744C169.883 12.6744 167.338 13.9882 167.342 18.2365V26.2467H162.679L162.665 8.26412H167.338V11.3999C168.449 9.04365 170.409 7.86559 172.955 7.86121C173.379 7.86121 173.707 7.89625 174 7.92689" fill="black"/>
<path d="M5.37653 0.0570068H0V5.17674H5.37653V0.0570068Z" fill="#FF3201"/>
<path d="M5.37653 10.2744H0V26.4088H5.37653V10.2744Z" fill="#00BE00"/>
<path d="M14.6073 0.0570068H10.4688V5.17674H14.6073C19.345 5.17674 22.6917 8.49209 22.6917 13.2352C22.6917 17.9783 19.345 21.2936 14.6073 21.2936H10.4688V26.4133H14.6073C22.2805 26.4133 28.0726 20.7637 28.0726 13.2352C28.0726 5.70667 22.2761 0.0570068 14.6073 0.0570068Z" fill="#019FFF"/>
</g>
<defs>
<clipPath id="clip0_1196_30440">
<rect width="174" height="27" fill="white"/>
</clipPath>
</defs>
</svg>
